<svg width="264" height="233" viewBox="0 0 264 233" fill="none" xmlns="http://www.w3.org/2000/svg">
<path d="M124 219.9C113.2 219.9 102.9 217.75 93.1 213.45C83.3 209.05 74.75 202.9 67.45 195C60.25 187.1 55.1 177.8 52 167.1L91.6 156.6C93.7 164.5 97.8 170.65 103.9 175.05C110.1 179.35 116.8 181.5 124 181.5C130.2 181.5 135.85 180 140.95 177C146.15 174 150.25 169.95 153.25 164.85C156.35 159.75 157.9 154.1 157.9 147.9C157.9 138.6 154.7 130.65 148.3 124.05C142 117.35 133.9 114 124 114C121 114 118.1 114.45 115.3 115.35C112.5 116.15 109.8 117.3 107.2 118.8L88.9 86.7L157.6 29.7L160.6 38.4H60.4V0H195.4V38.4L142 90L141.7 78.6C154.1 80.5 164.55 84.85 173.05 91.65C181.65 98.35 188.15 106.65 192.55 116.55C197.05 126.35 199.3 136.8 199.3 147.9C199.3 161.5 195.85 173.75 188.95 184.65C182.05 195.45 172.9 204.05 161.5 210.45C150.1 216.75 137.6 219.9 124 219.9Z" fill="#B3F7D2"/>
<g clip-path="url(#clip0_235_191)">
<path d="M63.3814 137.775C61.2744 126.495 64.5916 113.663 73.8115 106.836C73.289 119.303 77.1921 131.553 84.8302 141.419C87.7897 145.213 91.4763 149.125 91.3618 153.936C91.2906 156.93 89.672 159.718 87.5391 161.819C85.406 163.92 82.7785 165.435 80.1824 166.926L79.7783 167.555C72.168 158.969 65.4883 149.054 63.3814 137.775Z" fill="#F0F0F0"/>
<path d="M73.9795 107.008C70.1059 115.68 69.0624 125.351 70.9972 134.65C71.3781 136.659 72.0734 138.595 73.0572 140.388C74.072 142.103 75.5275 143.515 77.2725 144.478C78.8815 145.408 80.635 146.172 81.9899 147.477C82.6736 148.156 83.2062 148.971 83.5528 149.869C83.8994 150.768 84.0522 151.73 84.0011 152.691C83.9363 155.091 83.0131 157.325 82.0345 159.477C80.948 161.868 79.7816 164.333 79.852 167.02C79.8606 167.346 79.355 167.34 79.3465 167.015C79.2239 162.34 82.6031 158.585 83.3561 154.099C83.7074 152.005 83.4302 149.794 81.9589 148.171C80.6723 146.752 78.8648 145.962 77.2275 145.034C75.5115 144.121 74.0452 142.8 72.9569 141.189C71.885 139.452 71.1163 137.546 70.6839 135.551C69.6387 131.076 69.3034 126.465 69.6904 121.886C70.1031 116.657 71.407 111.537 73.5456 106.749C73.6781 106.452 74.1112 106.714 73.9795 107.008Z" fill="white"/>
<path d="M70.198 131.692C68.5942 131.805 67.0026 131.344 65.7073 130.392C64.4119 129.439 63.4973 128.057 63.1267 126.492C63.0528 126.175 63.5416 126.046 63.6156 126.363C63.958 127.821 64.8102 129.108 66.0182 129.993C67.2262 130.877 68.7105 131.301 70.2033 131.187C70.5277 131.162 70.5205 131.668 70.198 131.692Z" fill="white"/>
<path d="M76.3946 144.113C78.5718 141.651 79.741 138.458 79.6691 135.172C79.6617 134.846 80.1673 134.852 80.1747 135.177C80.2431 138.597 79.0196 141.917 76.7484 144.475C76.5317 144.718 76.1791 144.356 76.3946 144.113Z" fill="white"/>
<path d="M70.6956 116.971C71.3253 117.057 71.9663 116.984 72.5612 116.761C73.1561 116.538 73.6861 116.17 74.1038 115.691C74.3173 115.445 74.6697 115.808 74.4576 116.052C73.9936 116.579 73.4077 116.985 72.751 117.233C72.0943 117.481 71.3868 117.565 70.6903 117.477C70.624 117.474 70.5612 117.446 70.5147 117.398C70.4683 117.351 70.4416 117.288 70.4402 117.221C70.4412 117.154 70.4686 117.09 70.5165 117.043C70.5643 116.997 70.6287 116.971 70.6956 116.971Z" fill="white"/>
<path d="M111.516 116.165C111.387 116.323 111.258 116.481 111.13 116.642C109.408 118.769 107.862 121.033 106.506 123.411C106.398 123.593 106.292 123.779 106.19 123.964C102.985 129.727 100.877 136.036 99.9745 142.569C99.6177 145.169 99.4591 147.792 99.5002 150.416C99.5572 154.039 99.9072 157.964 98.7967 161.297C98.6847 161.646 98.5512 161.988 98.397 162.32L80.5766 167.999C80.5296 167.992 80.4837 167.989 80.4366 167.981L79.7354 168.24C79.7238 168.105 79.7147 167.965 79.7032 167.83C79.6961 167.751 79.6931 167.672 79.686 167.593C79.6826 167.541 79.6794 167.488 79.6732 167.44C79.672 167.423 79.671 167.405 79.6711 167.392C79.665 167.345 79.6643 167.3 79.6595 167.257C79.6065 166.472 79.5575 165.686 79.5168 164.897C79.5155 164.893 79.5155 164.893 79.5182 164.887C79.2123 158.879 79.4052 152.793 80.5156 146.929C80.5491 146.752 80.581 146.572 80.6226 146.393C81.1378 143.753 81.8679 141.159 82.8055 138.637C83.3234 137.258 83.9107 135.907 84.5652 134.587C86.263 131.181 88.4859 128.063 91.1523 125.347C96.4687 119.935 103.456 116.284 110.944 116.169C111.135 116.166 111.323 116.164 111.516 116.165Z" fill="#F0F0F0"/>
<path d="M111.548 116.405C103.236 120.995 96.5808 128.089 92.5287 136.679C91.6235 138.512 91.013 140.477 90.7195 142.501C90.4974 144.481 90.8095 146.485 91.6236 148.305C92.3485 150.016 93.2882 151.683 93.5846 153.541C93.7222 154.494 93.6567 155.466 93.3926 156.392C93.1284 157.318 92.6715 158.178 92.0518 158.915C90.5555 160.792 88.4741 162.019 86.397 163.149C84.0908 164.403 81.6754 165.669 80.1142 167.857C79.925 168.122 79.5248 167.813 79.7137 167.548C82.43 163.742 87.3882 162.779 90.6898 159.65C92.2303 158.19 93.3404 156.257 93.1423 154.076C92.969 152.168 92.0015 150.449 91.2525 148.722C90.4324 146.959 90.0563 145.022 90.1572 143.08C90.3467 141.048 90.8805 139.063 91.7359 137.21C93.595 133.007 96.1031 129.123 99.1684 125.7C102.645 121.774 106.768 118.472 111.358 115.936C111.642 115.779 111.83 116.249 111.548 116.405Z" fill="white"/>
<path d="M93.6707 133.836C92.3222 132.96 91.3288 131.634 90.868 130.093C90.4071 128.553 90.5087 126.898 91.1547 125.426C91.2864 125.128 91.7548 125.319 91.6229 125.617C91.0189 126.987 90.9243 128.528 91.3564 129.962C91.7885 131.396 92.7188 132.628 93.9793 133.436C94.253 133.611 93.9428 134.011 93.6707 133.836Z" fill="white"/>
<path d="M91.1416 147.485C94.3622 146.83 97.2176 144.985 99.1384 142.318C99.3285 142.053 99.7288 142.362 99.5389 142.626C97.5349 145.398 94.5595 147.312 91.2066 147.987C90.8869 148.051 90.8237 147.549 91.1416 147.485Z" fill="white"/>
<path d="M102.929 122.381C103.38 122.829 103.935 123.157 104.545 123.337C105.154 123.517 105.799 123.543 106.421 123.412C106.739 123.344 106.802 123.846 106.486 123.913C105.798 124.055 105.086 124.026 104.412 123.828C103.739 123.631 103.123 123.272 102.62 122.782C102.569 122.74 102.536 122.68 102.527 122.614C102.519 122.548 102.536 122.481 102.574 122.427C102.616 122.375 102.676 122.34 102.742 122.331C102.809 122.323 102.876 122.341 102.929 122.381Z" fill="white"/>
<path d="M139.508 54.4864C139.568 54.7489 139.607 55.0157 139.624 55.2843L160.518 67.3408L165.597 64.4165L171.011 71.5059L162.523 77.5568C161.838 78.0456 161.012 78.2988 160.17 78.2783C159.328 78.2578 158.516 77.9647 157.855 77.443L136.31 60.4418C135.337 60.8018 134.278 60.8572 133.274 60.6006C132.269 60.344 131.367 59.7875 130.686 59.0053C130.005 58.223 129.579 57.252 129.463 56.2214C129.348 55.1908 129.549 54.1494 130.039 53.2359C130.53 52.3223 131.287 51.5797 132.21 51.107C133.133 50.6343 134.178 50.4538 135.206 50.5896C136.233 50.7254 137.196 51.1709 137.964 51.867C138.733 52.5631 139.271 53.4767 139.508 54.4864Z" fill="#FFB6B6"/>
<path d="M160.808 66.0096C160.875 65.702 161.006 65.4124 161.195 65.1605C161.383 64.9085 161.624 64.7002 161.9 64.5498L171.546 59.2927C172.831 58.3229 174.447 57.9023 176.042 58.123C177.636 58.3438 179.077 59.1879 180.05 60.4703C181.023 61.7526 181.448 63.3686 181.231 64.9637C181.015 66.5588 180.175 68.003 178.895 68.9794L171.164 76.8354C170.943 77.0596 170.677 77.2336 170.383 77.3455C170.089 77.4574 169.774 77.5047 169.46 77.484C169.147 77.4634 168.841 77.3753 168.564 77.2258C168.287 77.0763 168.046 76.869 167.857 76.6178L161.2 67.7901C161.011 67.539 160.878 67.2499 160.81 66.9427C160.742 66.6354 160.742 66.3171 160.808 66.0096Z" fill="#3F3D56"/>
<path d="M178.042 35.4467C179.43 31.0224 182.586 26.9646 186.951 25.469C191.316 23.9733 197.708 26.2517 200.989 29.523C206.992 35.5068 208.457 56.0635 204.333 62.5597C203.513 62.5163 200.682 62.4842 199.852 62.453L198.677 58.5376V62.4144C192.197 62.2141 185.451 62.3396 178.7 62.4693C178.095 57.8699 176.654 39.871 178.042 35.4467Z" fill="#2F2E41"/>
<path d="M176.185 221.155H170.274L167.463 198.351L176.186 198.352L176.185 221.155Z" fill="#FFB6B6"/>
<path d="M227.926 217.479L222.207 218.97L213.735 197.613L222.176 195.413L227.926 217.479Z" fill="#FFB6B6"/>
<path d="M195.354 81.0983L196.693 84.5811L196.425 88.064L170.214 97.1446L171.515 81.902L174.461 78.4187L195.354 81.0983Z" fill="#FFB6B6"/>
<path d="M187.066 49.7554C192.237 49.7554 196.428 45.5631 196.428 40.3917C196.428 35.2202 192.237 31.028 187.066 31.028C181.896 31.028 177.705 35.2202 177.705 40.3917C177.705 45.5631 181.896 49.7554 187.066 49.7554Z" fill="#FFB7B7"/>
<path d="M180.634 28.1985C182.433 27.1016 184.493 26.5083 186.6 26.4805C188.706 26.4527 190.781 26.9915 192.608 28.0406C194.435 29.0896 195.947 30.6103 196.985 32.4438C198.024 34.2772 198.551 36.356 198.511 38.4628C193.408 39.7674 187.97 40.313 182.207 38.777L180.89 35.5523L180.113 38.7794C178.35 40.0199 176.649 40.0176 175.008 38.7727C174.939 36.6718 175.422 34.5895 176.409 32.7339C177.396 30.8783 178.853 29.3144 180.634 28.1985Z" fill="#2F2E41"/>
<path d="M178.829 232.381H174.635L173.886 228.42L171.969 232.381H160.845C160.312 232.381 159.793 232.21 159.363 231.894C158.934 231.578 158.616 231.133 158.458 230.624C158.299 230.115 158.307 229.568 158.481 229.064C158.655 228.56 158.985 228.124 159.424 227.821L168.307 221.685V217.681L177.651 218.239L178.829 232.381Z" fill="#2F2E41"/>
<path d="M233.834 227.539L229.775 228.597L228.052 224.954L227.195 229.27L216.431 232.076C215.915 232.211 215.37 232.177 214.875 231.979C214.379 231.782 213.96 231.431 213.678 230.979C213.396 230.526 213.266 229.995 213.307 229.463C213.349 228.932 213.559 228.427 213.907 228.023L220.955 219.844L219.945 215.969L229.127 214.152L233.834 227.539Z" fill="#2F2E41"/>
<path d="M227.201 203.138L209.875 167.521L204.437 124.171C208.187 117.205 201.222 103.031 201.222 103.031V97.0795L174.245 102.17C168.727 117.223 166.052 133.17 166.354 149.2L167.441 206.825H167.1C166.534 206.825 165.991 207.05 165.591 207.45C165.191 207.851 164.966 208.393 164.966 208.959C164.966 209.525 165.191 210.068 165.591 210.468C165.991 210.869 166.534 211.093 167.1 211.093H177.768C178.334 211.093 178.877 210.869 179.277 210.468C179.677 210.068 179.902 209.525 179.902 208.959C179.902 208.393 179.677 207.851 179.277 207.45C178.877 207.05 178.334 206.825 177.768 206.825H177.493L185.151 133.516L194.056 169.692L215.575 203.001C215.026 203.044 214.515 203.298 214.15 203.709C213.784 204.121 213.592 204.659 213.614 205.209C213.636 205.759 213.871 206.279 214.268 206.66C214.666 207.041 215.195 207.253 215.746 207.252H226.414C226.91 207.253 227.391 207.08 227.773 206.764C228.156 206.448 228.416 206.008 228.509 205.521C228.603 205.033 228.523 204.529 228.284 204.094C228.045 203.659 227.662 203.321 227.201 203.138Z" fill="#2F2E41"/>
<path d="M203.661 106.679C203.573 106.331 203.376 106.02 203.1 105.79C202.824 105.56 202.482 105.424 202.123 105.401C201.767 101.334 199.418 75.2551 199.329 74.4901L199.325 74.4577L198.645 59.9212C198.62 59.3932 198.402 58.8929 198.032 58.5158C197.661 58.1386 197.165 57.911 196.638 57.8766L193.045 57.6416C192.996 57.64 192.949 57.6192 192.915 57.5838C192.88 57.5483 192.861 57.5009 192.861 57.4516C192.861 57.0547 192.783 56.6616 192.631 56.2949C192.479 55.9282 192.257 55.595 191.976 55.3144C191.695 55.0337 191.362 54.8111 190.996 54.6592C190.629 54.5073 190.236 54.4291 189.839 54.4291H179.201C178.512 54.4294 177.846 54.6812 177.33 55.1373C176.813 55.5934 176.481 56.2224 176.395 56.9063C176.39 56.9534 176.368 56.9969 176.332 57.0283C176.297 57.0596 176.251 57.0764 176.204 57.0753L176.202 57.0753C174.994 57.0504 173.816 57.4598 172.883 58.2291C171.95 58.9985 171.324 60.0768 171.118 61.2685C169.663 69.7328 166.749 88.9435 168.19 99.6235C168.691 103.341 168.463 108.933 168.274 112.044C168.255 112.344 168.295 112.646 168.393 112.931C168.491 113.216 168.644 113.478 168.844 113.704C168.419 113.826 168.059 114.109 167.839 114.492C167.619 114.874 167.556 115.328 167.663 115.756C167.774 116.195 168.054 116.572 168.443 116.804C168.832 117.037 169.297 117.105 169.735 116.994L202.424 108.752C202.863 108.641 203.24 108.361 203.472 107.972C203.704 107.583 203.772 107.118 203.661 106.679Z" fill="#3F3D56"/>
<path d="M149.636 167.793C149.63 166.838 149.287 165.916 148.666 165.191C148.045 164.466 147.188 163.984 146.246 163.831L88.2915 154.312C87.7358 154.22 87.1669 154.245 86.6216 154.386L73.0396 157.899L65.2466 159.917L50.8651 163.635C49.9969 163.861 49.2282 164.368 48.6793 165.078C48.1304 165.787 47.8325 166.659 47.8323 167.556V228.299C47.8366 229.225 48.1565 230.122 48.7392 230.841C49.3219 231.561 50.1325 232.06 51.0372 232.257L110.068 231.588C110.345 231.648 110.628 231.677 110.911 231.676C111.324 231.677 111.735 231.614 112.129 231.491L147.201 232.363C148.028 232.105 148.751 231.587 149.261 230.885C149.771 230.184 150.041 229.337 150.031 228.469L149.636 167.793Z" fill="white"/>
<path d="M149.636 167.793C149.63 166.838 149.287 165.916 148.666 165.191C148.045 164.466 147.188 163.984 146.246 163.831L88.2915 154.312C87.7358 154.22 87.1669 154.245 86.6216 154.386L73.0396 157.899L65.2466 159.917L50.8651 163.635C49.9969 163.861 49.2282 164.368 48.6793 165.078C48.1304 165.787 47.8325 166.659 47.8323 167.556V228.299C47.8366 229.225 48.1565 230.122 48.7392 230.841C49.3219 231.561 50.1325 232.06 51.0372 232.257L110.068 231.588C110.345 231.648 110.628 231.677 110.911 231.676C111.324 231.677 111.735 231.614 112.129 231.491L147.201 232.363C148.028 232.105 148.751 231.587 149.261 230.885C149.771 230.184 150.041 229.337 150.031 228.469L149.636 167.793ZM146.897 231.398L111.826 232.233C111.325 232.389 110.793 232.414 110.28 232.307L51.2463 231.268C50.568 231.12 49.9604 230.746 49.5237 230.206C49.087 229.666 48.8474 228.993 48.8444 228.299V167.556C48.8448 166.935 49.0358 166.328 49.3917 165.818C49.7477 165.308 50.2513 164.92 50.8348 164.705C50.9274 164.67 51.022 164.641 51.1181 164.617L66.3329 160.683L75.3302 158.354L86.8746 155.368C87.1221 155.302 87.3774 155.269 87.6336 155.27C87.7986 155.27 87.9634 155.284 88.1262 155.311L146.081 164.83C146.547 164.906 146.989 165.09 147.372 165.367C147.755 165.645 148.068 166.007 148.287 166.426C148.506 166.851 148.622 167.321 148.624 167.799L149.019 228.476C149.026 229.127 148.824 229.762 148.442 230.289C148.06 230.815 147.518 231.204 146.897 231.398Z" fill="#CCCCCC"/>
<path d="M148.287 166.426C148.248 166.452 148.204 166.471 148.159 166.483L131.112 171.093L125.806 172.527L110.712 176.606C110.669 176.617 110.625 176.623 110.581 176.623C110.55 176.623 110.52 176.62 110.49 176.617L49.6304 165.518L49.428 165.481C49.2962 165.456 49.1795 165.38 49.1035 165.27C49.0275 165.159 48.9983 165.023 49.0224 164.891C49.0465 164.759 49.1218 164.642 49.232 164.565C49.3421 164.489 49.4781 164.459 49.6102 164.482L50.8348 164.705L110.56 175.597L123.569 172.081L130.846 170.114L147.629 165.576L147.896 165.505C148.011 165.474 148.133 165.485 148.241 165.536C148.349 165.587 148.436 165.673 148.486 165.781C148.499 165.807 148.509 165.834 148.516 165.862C148.544 165.968 148.537 166.081 148.496 166.182C148.454 166.284 148.381 166.369 148.287 166.426Z" fill="#CCCCCC"/>
<path d="M111.087 231.794C110.809 231.794 110.583 231.571 110.581 233L110.075 177.829C110.072 175.842 110.297 175.614 110.576 175.611H110.581C110.858 175.611 111.084 175.834 111.087 177.82L111.593 232.991C111.595 231.563 111.371 231.792 111.091 231.794H111.087Z" fill="#CCCCCC"/>
<path d="M131.256 232.435L125.806 232.492L123.569 172.081L66.4984 160.723C66.4425 160.713 66.3873 160.7 66.3331 160.683C65.8947 160.558 65.5117 160.288 65.2468 159.917L73.0398 157.899L75.3304 158.354L129.483 169.129C129.768 169.185 130.037 169.302 130.272 169.472C130.507 169.642 130.703 169.861 130.846 170.114C131.015 170.408 131.252 232.084 131.256 232.435Z" fill="#CCCCCC"/>
<path d="M174.91 57.2205C174.906 56.5011 174.646 55.8065 174.179 55.26C173.711 54.7135 173.065 54.3503 172.355 54.2349L128.677 47.0608C128.258 46.9914 127.83 47.0105 127.419 47.1167L117.183 49.7641L111.309 51.2849L100.471 54.0874C99.8165 54.2573 99.2371 54.6397 98.8234 55.1745C98.4098 55.7093 98.1852 56.3663 98.1851 57.0425V92.8494C98.1883 93.5473 98.4294 94.2232 98.8686 94.7656C99.3077 95.3079 99.9186 95.6842 100.6 95.8324L145.089 105.3C145.298 105.345 145.511 105.368 145.725 105.367C146.036 105.367 146.346 105.32 146.643 105.227L173.074 96.8777C173.698 96.683 174.243 96.2923 174.627 95.7637C175.011 95.235 175.215 94.5965 175.208 93.943L174.91 57.2205Z" fill="white"/>
<path d="M128.183 49.6902C128.151 49.6901 128.119 49.6942 128.088 49.7024L101.14 56.6731C101.058 56.6942 100.986 56.7419 100.934 56.8087C100.883 56.8754 100.855 56.9574 100.855 57.0419V92.8483C100.855 92.9355 100.885 93.0199 100.94 93.0877C100.995 93.1555 101.071 93.2025 101.156 93.221L145.645 102.689C145.709 102.702 145.776 102.699 145.839 102.679L172.271 94.3307C172.349 94.3064 172.417 94.2576 172.465 94.1915C172.513 94.1255 172.538 94.0457 172.537 93.9641L172.241 57.2418C172.241 57.1519 172.208 57.0652 172.15 56.997C172.091 56.9288 172.011 56.8834 171.922 56.869L128.244 49.6951C128.224 49.6919 128.203 49.6902 128.183 49.6902Z" fill="#52DC91"/>
<path d="M174.91 57.2205C174.906 56.5011 174.646 55.8065 174.179 55.26C173.711 54.7135 173.065 54.3503 172.355 54.2349L128.677 47.0608C128.258 46.9914 127.83 47.0105 127.419 47.1167L117.183 49.7641L111.309 51.2849L100.471 54.0874C99.8165 54.2573 99.2371 54.6397 98.8234 55.1745C98.4098 55.7093 98.1852 56.3663 98.1851 57.0425V92.8494C98.1883 93.5473 98.4294 94.2232 98.8686 94.7656C99.3077 95.3079 99.9186 95.6842 100.6 95.8324L145.089 105.3C145.298 105.345 145.511 105.368 145.725 105.367C146.036 105.367 146.346 105.32 146.643 105.227L173.074 96.8777C173.698 96.683 174.243 96.2923 174.627 95.7637C175.011 95.235 175.215 94.5965 175.208 93.943L174.91 57.2205ZM172.846 96.1504L146.414 104.499C146.037 104.617 145.636 104.636 145.249 104.555L100.758 95.0874C100.247 94.9759 99.7889 94.6934 99.4598 94.2865C99.1307 93.8797 98.9501 93.3728 98.9478 92.8494V57.0425C98.9481 56.5738 99.0921 56.1166 99.3604 55.7323C99.6286 55.3481 100.008 55.0553 100.448 54.8935C100.518 54.8673 100.589 54.8453 100.661 54.8274L112.128 51.8622L118.909 50.1074L127.609 47.8568C127.796 47.807 127.988 47.7822 128.181 47.783C128.306 47.783 128.43 47.7932 128.553 47.8135L172.23 54.9877C172.582 55.0453 172.915 55.1841 173.204 55.3928C173.492 55.6016 173.728 55.8747 173.893 56.1906C174.058 56.5107 174.145 56.8654 174.147 57.2256L174.445 93.9481C174.45 94.4383 174.298 94.9173 174.01 95.314C173.722 95.7107 173.313 96.004 172.846 96.1504Z" fill="#3F3D56"/>
<path d="M173.893 56.1905C173.864 56.21 173.831 56.2246 173.797 56.2337L160.949 59.7076L156.95 60.7884L145.575 63.863C145.542 63.871 145.509 63.8753 145.476 63.8757C145.453 63.8753 145.43 63.8736 145.407 63.8706L99.5403 55.5064L99.3878 55.4784C99.2883 55.4598 99.2003 55.4026 99.143 55.3192C99.0856 55.2359 99.0636 55.1332 99.0818 55.0337C99.0999 54.9341 99.1568 54.8458 99.2398 54.7881C99.3229 54.7304 99.4255 54.7079 99.5251 54.7256L100.448 54.8935L145.46 63.1026L155.264 60.4527L160.748 58.9701L173.397 55.5496L173.598 55.4962C173.685 55.4733 173.777 55.4816 173.859 55.5197C173.94 55.5579 174.005 55.6233 174.043 55.7047C174.053 55.7242 174.061 55.7446 174.066 55.7658C174.087 55.8457 174.082 55.9303 174.05 56.0069C174.019 56.0835 173.964 56.1479 173.893 56.1905Z" fill="#3F3D56"/>
<path d="M145.857 105.456C145.756 105.456 145.66 105.416 145.589 105.345C145.517 105.274 145.477 105.178 145.476 105.078L145.094 63.4977C145.093 63.3966 145.133 63.2992 145.204 63.227C145.274 63.1548 145.371 63.1137 145.472 63.1128H145.476C145.576 63.1128 145.673 63.1525 145.744 63.2233C145.815 63.2941 145.856 63.3902 145.857 63.4908L146.238 105.071C146.239 105.172 146.2 105.269 146.129 105.341C146.058 105.414 145.962 105.455 145.86 105.456H145.857Z" fill="#3F3D56"/>
<path d="M160.949 100.397L156.95 101.478L155.264 60.4527L112.253 51.8926C112.211 51.8851 112.169 51.8749 112.128 51.8621C111.798 51.768 111.509 51.5644 111.309 51.2848L117.183 49.764L118.909 50.1074L159.721 58.2275C159.936 58.2699 160.139 58.3582 160.316 58.4864C160.493 58.6145 160.641 58.7796 160.748 58.9701C160.876 59.1913 160.947 100.133 160.949 100.397Z" fill="#3F3D56"/>
<path d="M159.158 77.0064C159.362 77.1814 159.553 77.3722 159.727 77.5771L183.686 74.7784L186.016 69.4003L194.59 71.8568L191.39 81.7786C191.132 82.5802 190.62 83.2762 189.932 83.7622C189.245 84.2483 188.418 84.4981 187.576 84.4742L160.145 83.6942C159.579 84.5635 158.763 85.24 157.804 85.6338C156.844 86.0276 155.788 86.1199 154.775 85.8986C153.762 85.6772 152.841 85.1527 152.133 84.3947C151.426 83.6367 150.965 82.6812 150.814 81.6553C150.663 80.6293 150.827 79.5816 151.285 78.6514C151.744 77.7212 152.475 76.9527 153.38 76.448C154.286 75.9433 155.324 75.7265 156.356 75.8262C157.388 75.9259 158.365 76.3376 159.158 77.0064Z" fill="#FFB6B6"/>
<path d="M183.124 73.5371C182.994 73.2508 182.927 72.9397 182.928 72.6251C182.928 72.3105 182.997 71.9998 183.129 71.7142L187.732 61.7375C188.184 60.1927 189.231 58.8903 190.642 58.1159C192.052 57.3414 193.713 57.1582 195.258 57.6064C196.804 58.0545 198.109 59.0975 198.887 60.5066C199.665 61.9157 199.853 63.5758 199.409 65.1231L197.893 76.0418C197.849 76.3534 197.739 76.652 197.57 76.9173C197.401 77.1826 197.177 77.4083 196.913 77.5791C196.649 77.7499 196.351 77.8617 196.04 77.907C195.728 77.9522 195.411 77.9299 195.109 77.8414L184.501 74.7319C184.199 74.6435 183.92 74.4911 183.682 74.2849C183.445 74.0787 183.254 73.8236 183.124 73.5371Z" fill="#3F3D56"/>
<path d="M263.492 232.879H0.508075C0.373578 232.878 0.244718 232.825 0.149751 232.729C0.0547841 232.634 0.00146484 232.505 0.00146484 232.371C0.00146484 232.236 0.0547841 232.107 0.149751 232.012C0.244718 231.917 0.373578 231.863 0.508075 231.862H263.492C263.627 231.862 263.756 231.916 263.851 232.011C263.946 232.107 264 232.236 264 232.371C264 232.505 263.946 232.635 263.851 232.73C263.756 232.825 263.627 232.879 263.492 232.879Z" fill="#CACACA"/>
<path d="M51.2544 178.879C59.6939 178.879 66.5356 172.035 66.5356 163.594C66.5356 155.152 59.6939 148.309 51.2544 148.309C42.8148 148.309 35.9731 155.152 35.9731 163.594C35.9731 172.035 42.8148 178.879 51.2544 178.879Z" fill="#52DC91"/>
<path d="M49.1696 171.549C48.9057 171.549 48.6455 171.487 48.4095 171.369C48.1735 171.251 47.9682 171.08 47.8099 170.869L43.6409 165.309C43.3705 164.948 43.2544 164.495 43.3181 164.048C43.3819 163.602 43.6203 163.199 43.981 162.928C44.3416 162.658 44.795 162.542 45.2413 162.606C45.6875 162.669 46.0902 162.908 46.3607 163.269L49.0881 166.906L56.0933 156.396C56.2168 156.209 56.3759 156.049 56.5614 155.924C56.747 155.799 56.9554 155.712 57.1746 155.668C57.3939 155.623 57.6197 155.623 57.8392 155.666C58.0586 155.709 58.2674 155.796 58.4535 155.92C58.6396 156.044 58.7994 156.203 58.9237 156.389C59.048 156.575 59.1344 156.784 59.178 157.004C59.2215 157.223 59.2213 157.449 59.1774 157.668C59.1334 157.888 59.0466 158.096 58.922 158.282L50.5841 170.792C50.4333 171.018 50.2304 171.205 49.9925 171.336C49.7547 171.468 49.4887 171.541 49.2169 171.548C49.2012 171.549 49.1854 171.549 49.1696 171.549Z" fill="white"/>
<path d="M116.321 82.4074C116.274 82.4074 116.226 82.4021 116.18 82.3916L102.952 79.4039C102.786 79.3663 102.642 79.2646 102.552 79.1211C102.461 78.9776 102.431 78.8041 102.469 78.6386C102.506 78.4731 102.608 78.3291 102.751 78.2384C102.894 78.1477 103.068 78.1176 103.233 78.1547L116.462 81.1424C116.615 81.1771 116.751 81.2672 116.842 81.3955C116.933 81.5237 116.974 81.6812 116.957 81.8377C116.939 81.9942 116.865 82.1389 116.748 82.244C116.63 82.3491 116.479 82.4073 116.321 82.4074Z" fill="white"/>
<path d="M65.4109 202.658C65.3644 202.668 65.3169 202.672 65.2694 202.671L51.71 202.443C51.5405 202.44 51.3791 202.369 51.2614 202.247C51.1436 202.125 51.0791 201.962 51.0819 201.792C51.0847 201.622 51.1546 201.461 51.2764 201.343C51.3981 201.225 51.5617 201.16 51.7312 201.162L65.2906 201.391C65.4481 201.393 65.599 201.454 65.7145 201.561C65.8301 201.668 65.9022 201.814 65.9171 201.971C65.932 202.127 65.8886 202.284 65.7952 202.411C65.7018 202.538 65.565 202.626 65.4109 202.658Z" fill="#E6E6E6"/>
<path d="M70.1048 209.914C70.0582 209.924 70.0108 209.928 69.9632 209.927L56.4038 209.699C56.2343 209.696 56.073 209.625 55.9552 209.503C55.8375 209.381 55.7729 209.218 55.7757 209.048C55.7785 208.878 55.8485 208.717 55.9702 208.599C56.092 208.481 56.2556 208.416 56.4251 208.418L69.9845 208.647C70.1419 208.649 70.2928 208.71 70.4084 208.817C70.524 208.924 70.5961 209.07 70.6109 209.227C70.6258 209.383 70.5824 209.54 70.4891 209.667C70.3957 209.794 70.2589 209.882 70.1048 209.914Z" fill="#E6E6E6"/>
</g>
<defs>
<clipPath id="clip0_235_191">
<rect width="264" height="208" fill="white" transform="translate(0 25)"/>
</clipPath>
</defs>
</svg>
