<svg width="293" height="234" viewBox="0 0 293 234" fill="none" xmlns="http://www.w3.org/2000/svg">
<path d="M71 220.7V185.3L161.6 104.9C168.4 98.9 173.2 93.25 176 87.95C178.8 82.65 180.2 77.7 180.2 73.1C180.2 66.5 178.85 60.65 176.15 55.55C173.45 50.35 169.65 46.3 164.75 43.4C159.85 40.4 154.1 38.9 147.5 38.9C140.6 38.9 134.5 40.5 129.2 43.7C124 46.8 119.95 50.95 117.05 56.15C114.15 61.25 112.8 66.8 113 72.8H71C71 58 74.25 45.2 80.75 34.4C87.25 23.6 96.3 15.25 107.9 9.35001C119.5 3.45 133 0.5 148.4 0.5C162.5 0.5 175.1 3.6 186.2 9.79999C197.4 15.9 206.2 24.45 212.6 35.45C219 46.45 222.2 59.2 222.2 73.7C222.2 84.4 220.7 93.3 217.7 100.4C214.7 107.4 210.25 113.9 204.35 119.9C198.45 125.8 191.2 132.5 182.6 140L124.1 191.3L120.8 182.3H222.2V220.7H71Z" fill="#B3F7D2"/>
<g clip-path="url(#clip0_235_190)">
<path d="M110.419 69.683C108.188 61.5472 126.186 54.5707 130.912 61.1224C131.569 60.1909 133.998 59.6252 135.112 59.9109C136.227 60.1966 137.164 60.911 138.078 61.6025C139.335 62.5682 140.638 63.5683 141.41 64.957C142.187 66.3399 142.307 68.2258 141.261 69.4259C140.433 70.3802 137.987 70.9974 136.741 71.2488C135.872 71.426 135.141 71.5689 134.512 71.6717C133.952 70.8545 133.666 69.843 133.769 68.8544C132.923 69.4144 132.352 70.3745 132.261 71.3917C132.243 71.6031 139.284 97.5078 139.284 97.5078C138.558 97.9364 137.661 98.3364 136.627 98.7021C134.872 96.0562 133.432 92.936 132.483 89.6729C132.266 91.6902 132.301 93.8789 132.563 96.102C132.701 97.2849 132.906 98.4736 133.169 99.6622C124.803 101.468 112.219 100.874 106.745 93.1932C106.744 93.1614 106.743 93.1296 106.742 93.0978C106.703 91.6607 104.742 91.3035 104.217 92.642C104.084 92.9809 103.962 93.2742 103.853 93.5075C102.259 87.8042 104.322 81.2038 110.419 69.683Z" fill="#2F2E41"/>
<path d="M224.141 134.199C222.161 136.547 218.653 136.845 216.306 134.866C216.078 134.674 215.866 134.465 215.673 134.239L189.252 142.607L185.14 135.868L216.593 126.159C219.061 124.338 222.537 124.862 224.358 127.33C225.882 129.395 225.792 132.235 224.141 134.199Z" fill="#FFB6B6"/>
<path d="M130.573 113.288C130.573 113.288 142.273 100.128 147.37 105.718C152.466 111.308 168.367 135.806 168.367 135.806L205.486 127.974L209.075 137.77L166.929 151.428C163.761 152.454 160.288 151.39 158.24 148.764L130.573 113.288Z" fill="#52DC91"/>
<path d="M155.985 233.254H97.9516L97.8987 232.801L97.8647 232.499L97.3663 228.27L96.6603 222.248L96.3885 219.934C96.3696 219.817 96.3507 219.704 96.3356 219.587C96.0978 218.08 95.9619 216.566 95.9128 215.056C95.8411 212.98 95.9354 210.907 96.1582 208.86V208.849C96.279 207.743 96.4338 206.648 96.6264 205.564C96.868 204.171 97.1587 202.801 97.4947 201.46C97.8798 199.905 98.3178 198.391 98.7973 196.93C99.3485 195.22 99.9526 193.581 100.576 192.033C100.643 191.867 100.711 191.701 100.776 191.538L100.779 191.535C104.064 183.527 107.794 178.056 107.794 178.056H150.072C150.072 178.056 152.028 186.638 152.998 193.724C153.153 194.846 153.281 195.926 153.376 196.93C153.546 198.784 153.595 200.377 153.448 201.46C153.357 202.132 153.191 202.608 152.934 202.827C150.608 204.813 153.27 209.027 153.27 209.027C153.27 209.027 155.264 212.073 153.527 213.787C153.183 214.127 152.987 214.565 152.893 215.056C152.742 215.868 152.874 216.812 153.081 217.646C153.289 218.484 153.576 219.213 153.735 219.587C153.806 219.753 153.852 219.847 153.852 219.847L154.146 222.177L154.433 224.419L154.92 228.27L155.067 228.95L155.826 232.499L155.89 232.801L155.985 233.254Z" fill="#2F2E41"/>
<path d="M126.671 95.2831L108.927 96.8634L105.657 107.041L102.093 107.557C96.0023 108.438 92.3777 114.826 94.744 120.506L97.88 128.034C97.88 128.034 93.2737 142.252 98.9309 148.226L101.338 174.537L95.9078 191.882L159.386 193.931L148.574 172.174L148.253 158.666C148.253 158.666 155.162 134.249 148.757 126.483L146.257 104.392L133.236 102.439L126.671 95.2831Z" fill="#52DC91"/>
<path d="M138.684 82.2263C140.512 74.3399 135.602 66.4644 127.715 64.6359C119.829 62.8075 111.953 67.7184 110.125 75.6049C108.296 83.4913 113.207 91.3668 121.094 93.1952C128.98 95.0237 136.856 90.1128 138.684 82.2263Z" fill="#FFB6B6"/>
<path d="M102.419 70.826C100.187 62.6902 118.185 55.7136 122.911 62.2654C123.569 61.3339 125.997 60.7681 127.112 61.0538C128.226 61.3396 129.163 62.0539 130.078 62.7454C131.335 63.7112 132.638 64.7113 133.409 66.0999C134.186 67.4829 134.306 69.3687 133.261 70.5688C132.432 71.5231 129.986 72.1403 128.74 72.3918C127.872 72.5689 127.14 72.7118 126.512 72.8147C125.952 71.9975 125.666 70.986 125.769 69.9973C124.923 70.5574 124.351 71.5174 124.26 72.5347C124.243 72.7461 131.283 98.6507 131.283 98.6507C130.558 99.0793 129.66 99.4794 128.626 99.8451C126.872 97.1992 125.432 94.079 124.483 90.8159C124.266 92.8332 124.3 95.0219 124.563 97.2449C124.7 98.4278 124.906 99.6165 125.169 100.805C116.802 102.611 104.219 102.017 98.744 94.3362C98.7431 94.3044 98.7421 94.2726 98.7413 94.2408C98.7021 92.8036 96.7412 92.4465 96.2166 93.785C96.0837 94.1239 95.9615 94.4172 95.8524 94.6505C94.258 88.9472 96.321 82.3467 102.419 70.826Z" fill="#2F2E41"/>
<path d="M227.723 232.801H30.6418L0.0603027 233.178L214.532 220.374C221.686 219.947 227.723 225.634 227.723 232.801Z" fill="#3F3D56"/>
<path d="M246.458 77.0122H196.224C195.066 77.0122 194.123 76.0731 194.123 74.9189C194.123 73.7647 195.066 72.826 196.224 72.826H246.458C247.616 72.826 248.558 73.7647 248.558 74.9189C248.558 76.0731 247.616 77.0122 246.458 77.0122Z" fill="#52DC91"/>
<path d="M221.322 83.763C221.134 83.3003 220.486 83.3003 220.298 83.7632C218.989 86.9919 217.124 90.6078 215.096 93.3711C214.771 93.8135 215.219 94.4047 215.735 94.218L220.082 92.6451V119.558H221.538V92.6451L225.887 94.2182C226.403 94.4049 226.851 93.8137 226.526 93.3713C224.498 90.6079 222.633 86.9919 221.322 83.763Z" fill="#3F3D56"/>
<path d="M291.705 92.3967H260.735C260.02 92.3967 259.439 91.8177 259.439 91.1061C259.439 90.3945 260.02 89.8158 260.735 89.8158H291.705C292.419 89.8158 293 90.3945 293 91.1061C293 91.8177 292.419 92.3967 291.705 92.3967Z" fill="#F2F2F2"/>
<path d="M276.208 96.5587C276.092 96.2734 275.693 96.2734 275.577 96.5587C274.769 98.5494 273.62 100.779 272.369 102.482C272.169 102.755 272.445 103.12 272.763 103.004L275.444 102.035V118.627H276.341V102.035L279.022 103.005C279.341 103.12 279.617 102.755 279.416 102.482C278.166 100.779 277.016 98.5494 276.208 96.5587Z" fill="#F2F2F2"/>
<path d="M276.225 134.638C279.942 134.638 282.955 131.625 282.955 127.908C282.955 124.191 279.942 121.178 276.225 121.178C272.508 121.178 269.495 124.191 269.495 127.908C269.495 131.625 272.508 134.638 276.225 134.638Z" fill="#F2F2F2"/>
<path d="M192.409 54.2641H161.439C160.725 54.2641 160.144 53.6851 160.144 52.9735C160.144 52.262 160.725 51.6832 161.439 51.6832H192.409C193.123 51.6832 193.704 52.262 193.704 52.9735C193.704 53.6851 193.123 54.2641 192.409 54.2641Z" fill="#F2F2F2"/>
<path d="M176.913 58.4262C176.797 58.1409 176.397 58.141 176.281 58.4263C175.474 60.4169 174.324 62.6462 173.074 64.3498C172.874 64.6226 173.15 64.9871 173.468 64.872L176.148 63.9023V80.495H177.045V63.9022L179.727 64.8721C180.045 64.9872 180.321 64.6227 180.121 64.35C178.87 62.6463 177.721 60.4169 176.913 58.4262Z" fill="#F2F2F2"/>
<path d="M176.929 96.5054C180.646 96.5054 183.659 93.4924 183.659 89.7757C183.659 86.059 180.646 83.046 176.929 83.046C173.212 83.046 170.199 86.059 170.199 89.7757C170.199 93.4924 173.212 96.5054 176.929 96.5054Z" fill="#F2F2F2"/>
<path d="M98.9059 220.175C100.494 217.546 99.6504 214.128 97.022 212.54C96.7674 212.386 96.5008 212.253 96.2249 212.142L95.6675 184.433L87.9653 182.703L88.868 215.608C87.9359 218.53 89.5488 221.654 92.4704 222.586C94.915 223.366 97.5755 222.369 98.9059 220.175Z" fill="#FFB6B6"/>
<path d="M104.264 110.852C104.264 110.852 94.8253 108.587 91.8049 115.005C88.7845 121.424 88.5274 149.353 88.5274 149.353L86.8967 205.995L98.8694 205.467L108.417 135.771L104.264 110.852Z" fill="#52DC91"/>
<path d="M100.027 228.532C100.24 228.799 100.563 228.953 100.903 228.952H162.195C162.818 228.951 163.322 228.445 163.321 227.822C163.321 227.745 163.313 227.668 163.297 227.592L162.346 223.073C162.266 222.699 162.001 222.39 161.644 222.254C161.516 222.204 161.38 222.178 161.243 222.178H101.851C101.714 222.178 101.578 222.204 101.451 222.254C101.093 222.39 100.829 222.699 100.749 223.073L99.7972 227.592C99.7287 227.924 99.8132 228.27 100.027 228.532Z" fill="#CCCCCC"/>
<path d="M76.5627 127.364V198.064C76.5642 199.94 78.0847 201.461 79.9607 201.462H184.731C186.607 201.461 188.127 199.94 188.129 198.064V127.364C188.124 125.49 186.605 123.972 184.731 123.97H79.9607C78.0865 123.972 76.5672 125.49 76.5627 127.364Z" fill="#E6E6E6"/>
<path d="M145.447 186.343C145.323 186.302 145.191 186.283 145.058 186.283H120.548C119.827 186.283 119.238 186.868 119.238 187.589V226.311H146.365V187.589C146.365 187.019 145.995 186.513 145.447 186.343ZM135.616 205.387C135.608 206.988 134.306 208.279 132.705 208.271C131.116 208.26 129.832 206.976 129.824 205.387V200.894C129.839 199.297 131.15 198.013 132.747 198.028C134.325 198.044 135.601 199.32 135.616 200.894V205.387Z" fill="#CCCCCC"/>
</g>
<defs>
<clipPath id="clip0_235_190">
<rect width="293" height="203.254" fill="white" transform="translate(0 30)"/>
</clipPath>
</defs>
</svg>
