<svg width="227" height="250" viewBox="0 0 227 250" fill="none" xmlns="http://www.w3.org/2000/svg">
<path d="M104.5 216V44.4L64 69.3V24.3L104.5 0H146.2V216H104.5Z" fill="#B3F7D2"/>
<path d="M113.122 250C175.598 250 226.245 247.643 226.245 244.736C226.245 241.828 175.598 239.472 113.122 239.472C50.6467 239.472 0 241.828 0 244.736C0 247.643 50.6467 250 113.122 250Z" fill="#E6E6E6"/>
<path d="M167.523 164.509C166.104 164.51 164.729 164.997 163.626 165.889C162.523 166.781 161.76 168.024 161.464 169.41H170.105V191.078H161.464C161.783 192.574 162.645 193.899 163.884 194.798C165.122 195.696 166.65 196.105 168.173 195.945C169.695 195.785 171.104 195.067 172.128 193.93C173.152 192.793 173.719 191.318 173.719 189.788V170.7C173.719 169.887 173.559 169.082 173.247 168.331C172.936 167.58 172.479 166.897 171.904 166.323C171.329 165.748 170.646 165.292 169.894 164.981C169.142 164.67 168.337 164.509 167.523 164.509Z" fill="#3F3D56"/>
<path d="M97.8616 126.591C94.9084 126.594 92.077 127.768 89.9887 129.855C87.9004 131.941 86.7258 134.771 86.7224 137.722V223.282C86.7258 226.233 87.9004 229.062 89.9887 231.149C92.077 233.236 94.9084 234.409 97.8616 234.413H151.995C154.948 234.409 157.78 233.236 159.868 231.149C161.956 229.062 163.131 226.233 163.134 223.282V137.722C163.131 134.771 161.956 131.941 159.868 129.855C157.78 127.768 154.948 126.594 151.995 126.591H97.8616Z" fill="#3F3D56"/>
<path d="M92.1436 244.473C95.2802 244.473 97.8229 241.932 97.8229 238.798C97.8229 235.664 95.2802 233.123 92.1436 233.123C89.0071 233.123 86.4644 235.664 86.4644 238.798C86.4644 241.932 89.0071 244.473 92.1436 244.473Z" fill="#3F3D56"/>
<path d="M155.648 244.473C158.785 244.473 161.328 241.932 161.328 238.798C161.328 235.664 158.785 233.123 155.648 233.123C152.512 233.123 149.969 235.664 149.969 238.798C149.969 241.932 152.512 244.473 155.648 244.473Z" fill="#3F3D56"/>
<path d="M99.3717 125.817H96.2739V234.671H99.3717V125.817Z" fill="#4D4D4D"/>
<path d="M108.149 125.817H105.051V234.671H108.149V125.817Z" fill="#4D4D4D"/>
<path d="M116.926 125.817H113.828V234.671H116.926V125.817Z" fill="#4D4D4D"/>
<path d="M125.703 125.817H122.605V234.671H125.703V125.817Z" fill="#4D4D4D"/>
<path d="M134.48 125.817H131.382V234.671H134.48V125.817Z" fill="#4D4D4D"/>
<path d="M143.257 125.817H140.159V234.671H143.257V125.817Z" fill="#4D4D4D"/>
<path d="M152.034 125.817H148.936V234.671H152.034V125.817Z" fill="#4D4D4D"/>
<path d="M151.202 117.563C153.226 114.123 154.293 110.204 154.293 106.213H99.4363C99.4358 110.204 100.503 114.123 102.527 117.563H91.3691C91.3691 123.546 96.4257 128.397 102.663 128.397H116.485C118.807 129.083 121.216 129.431 123.638 129.429H130.091C132.513 129.431 134.922 129.083 137.244 128.397H151.066C157.304 128.397 162.36 123.546 162.36 117.563H151.202Z" fill="#2F2E41"/>
<path d="M110.681 195.721C110.783 196.821 110.549 197.926 110.01 198.89C109.47 199.854 108.651 200.633 107.66 201.123L107.633 201.138C102.469 204.081 98.2439 206.391 93.2294 205.966C92.7241 205.921 92.236 205.76 91.803 205.496C91.3701 205.232 91.004 204.871 90.7333 204.443C90.4626 204.014 90.2946 203.529 90.2424 203.025C90.1901 202.52 90.2551 202.011 90.4322 201.536L97.5649 187.983C101.708 183.159 104.628 183.155 109.698 187.209L110.681 195.721Z" fill="#2F2E41"/>
<path d="M140.209 195.721C140.107 196.821 140.341 197.926 140.88 198.89C141.42 199.854 142.239 200.633 143.229 201.123L143.257 201.138C148.421 204.081 152.646 206.391 157.661 205.966C158.166 205.921 158.654 205.76 159.087 205.496C159.52 205.232 159.886 204.871 160.157 204.443C160.427 204.014 160.595 203.529 160.648 203.025C160.7 202.52 160.635 202.011 160.458 201.536L153.325 187.983C149.182 183.159 146.262 183.155 141.192 187.209L140.209 195.721Z" fill="#2F2E41"/>
<path d="M119.48 36.0518H99.6324C98.7333 36.0533 97.8576 35.7653 97.1352 35.2305C96.4128 34.6956 95.882 33.9425 95.6216 33.0826C95.0105 31.0473 94.2215 29.0726 94.2089 27.2816C94.1602 20.3307 94.506 15.9064 97.5648 13.0946C107.757 5.3724 115.142 6.79286 122.089 14.9002C124.528 19.4295 123.902 26.1894 122.583 33.4537C122.452 34.1814 122.07 34.8402 121.503 35.3151C120.936 35.7899 120.22 36.0507 119.48 36.0518Z" fill="#2F2E41"/>
<path d="M109.182 44.8219C116.595 44.8219 122.605 38.8166 122.605 31.4087C122.605 24.0008 116.595 17.9955 109.182 17.9955C101.768 17.9955 95.7578 24.0008 95.7578 31.4087C95.7578 38.8166 101.768 44.8219 109.182 44.8219Z" fill="#A0616A"/>
<path d="M119.507 58.2357L100.92 58.7516L99.3716 38.6317L117.442 38.1158L119.507 58.2357Z" fill="#A0616A"/>
<path d="M151.002 106.213L138.176 112.145C136.027 117.239 133.065 117.093 129.317 111.888C125.74 118.148 118.036 114.397 114.272 111.663C111.845 110.427 109.162 109.78 106.439 109.774C103.715 109.769 101.029 110.405 98.5974 111.63L84.9155 51.0129C89.1328 47.39 94.7524 45.1144 100.146 43.5324L110.73 56.6877L117.959 43.7904C122.982 39.7542 130.039 39.7468 137.578 40.695L141.98 64.2093C139.077 82.7582 143.442 92.0616 151.002 106.213Z" fill="#52DC91"/>
<path d="M108.665 186.177L97.823 187.208L81.7612 116.276C81.3959 114.634 81.4044 112.93 81.7862 111.291C82.168 109.652 82.9132 108.12 83.967 106.808C85.0207 105.495 86.356 104.436 87.8742 103.708C89.3925 102.98 91.055 102.602 92.739 102.602C94.3401 102.602 95.9228 102.944 97.3812 103.604C98.8396 104.264 100.14 105.228 101.195 106.432C102.251 107.635 103.037 109.049 103.501 110.58C103.966 112.111 104.097 113.724 103.888 115.31L101.953 129.944L108.665 186.177Z" fill="#2F2E41"/>
<path d="M141.192 187.208L152.034 186.693L168.096 116.276C168.461 114.634 168.453 112.93 168.071 111.291C167.689 109.652 166.944 108.12 165.89 106.808C164.837 105.495 163.501 104.436 161.983 103.708C160.465 102.98 158.802 102.602 157.118 102.602C155.517 102.602 153.934 102.944 152.476 103.604C151.018 104.264 149.717 105.228 148.662 106.432C147.606 107.635 146.82 109.049 146.356 110.58C145.892 112.111 145.76 113.724 145.969 115.31L147.904 129.944L141.192 187.208Z" fill="#2F2E41"/>
<path d="M176.433 85.4126L167.265 109.051C162.252 105.222 158.211 104.699 152.651 106.73C151.114 106.516 149.969 103.139 149.969 101.588C149.969 100.789 150.278 100.02 150.83 99.4416C151.383 98.8634 152.138 98.5205 152.938 98.4842L161.328 98.1031C162.863 94.087 163.796 89.8664 164.096 85.5778C168.122 84.4364 172.378 84.3794 176.433 85.4126Z" fill="#A0616A"/>
<path d="M177.333 86.0935L179.568 77.7601C180.544 74.7123 180.448 71.4227 179.296 68.4368C178.144 65.4509 176.005 62.9481 173.235 61.3435L137.578 40.6949L137.062 63.3942L163.393 74.7439C164.12 78.6059 164.356 82.5443 164.096 86.4655C168.203 85.2458 173.215 84.9869 177.333 86.0935Z" fill="#52DC91"/>
<path d="M122.347 23.9283L108.407 26.5078C107.119 26.5078 105.843 26.2542 104.653 25.7617C103.463 25.2691 102.381 24.5471 101.471 23.6369C100.56 22.7267 99.8371 21.6461 99.3441 20.4569C98.8511 19.2676 98.5974 17.993 98.5974 16.7058H122.863L122.347 23.9283Z" fill="#2F2E41"/>
<path d="M96.7903 29.0874C97.5031 29.0874 98.081 27.9325 98.081 26.5079C98.081 25.0833 97.5031 23.9285 96.7903 23.9285C96.0774 23.9285 95.4995 25.0833 95.4995 26.5079C95.4995 27.9325 96.0774 29.0874 96.7903 29.0874Z" fill="#A0616A"/>
<path d="M139.385 67.5635H139.235V63.4594C139.235 63.1474 139.173 62.8386 139.054 62.5504C138.934 62.2622 138.759 62.0003 138.539 61.7797C138.318 61.5591 138.056 61.3842 137.767 61.2648C137.479 61.1454 137.17 61.084 136.858 61.084H128.156C127.843 61.084 127.534 61.1454 127.246 61.2648C126.957 61.3842 126.695 61.5591 126.475 61.7797C126.254 62.0003 126.079 62.2622 125.959 62.5504C125.84 62.8386 125.778 63.1474 125.778 63.4594V85.9751C125.778 86.287 125.84 86.5959 125.959 86.8841C126.079 87.1723 126.254 87.4342 126.475 87.6548C126.695 87.8753 126.957 88.0503 127.246 88.1697C127.534 88.289 127.843 88.3505 128.156 88.3505H136.858C137.17 88.3505 137.479 88.289 137.767 88.1697C138.056 88.0503 138.318 87.8753 138.539 87.6548C138.759 87.4342 138.934 87.1723 139.054 86.8841C139.173 86.5959 139.235 86.287 139.235 85.9751V70.4849H139.385V67.5635Z" fill="#E6E6E6"/>
<path d="M132.157 69.8428C133.297 69.8428 134.222 68.919 134.222 67.7793C134.222 66.6396 133.297 65.7157 132.157 65.7157C131.016 65.7157 130.092 66.6396 130.092 67.7793C130.092 68.919 131.016 69.8428 132.157 69.8428Z" fill="#52DC91"/>
<path d="M130.35 86.6092C119.729 94.9396 109.081 101.873 101.179 102.86L99.8882 88.6728C107.478 87.5795 117.626 82.5831 128.285 76.8072L133.498 74.0986C134.338 73.6618 135.274 73.4401 136.221 73.4532C137.169 73.4663 138.098 73.7139 138.926 74.1738C139.755 74.6337 140.456 75.2916 140.967 76.0886C141.479 76.8856 141.784 77.7969 141.857 78.7409C141.96 80.0797 141.589 81.4121 140.809 82.5053C140.029 83.5986 138.889 84.3833 137.589 84.7222L130.35 86.6092Z" fill="#A0616A"/>
<path d="M110.214 103.118L89.046 103.634C81.9233 89.6714 79.3383 74.7722 80.7853 59.0407C80.7853 57.3596 81.1931 55.7035 81.9739 54.2145C82.7548 52.7254 83.8852 51.4477 85.2685 50.4908L87.4971 48.9491C97.026 63.0836 102.936 76.2093 100.921 87.1252L107.116 86.6093C103.104 92.0201 104.962 97.5381 110.214 103.118Z" fill="#52DC91"/>
<path d="M18.6218 164.044C18.6218 164.044 19.7155 140.54 42.1358 143.272Z" fill="#E6E6E6"/>
<path d="M18.3585 243.689C18.3305 243.443 15.6842 218.951 26.3992 205.989C30.3537 201.206 35.6526 198.527 42.1484 198.027L42.2199 198.951C35.9852 199.43 30.9031 201.996 27.1151 206.577C16.6507 219.234 19.2518 243.342 19.2789 243.584L18.3585 243.689Z" fill="#E6E6E6"/>
<path d="M18.3853 140.012H17.4526V242.988H18.3853V140.012Z" fill="#E6E6E6"/>
<path d="M18.0495 141.19C22.2777 141.19 25.7052 137.766 25.7052 133.541C25.7052 129.316 22.2777 125.891 18.0495 125.891C13.8214 125.891 10.3938 129.316 10.3938 133.541C10.3938 137.766 13.8214 141.19 18.0495 141.19Z" fill="#52DC91"/>
<path d="M42.1842 206.09C46.3856 206.09 49.7915 202.687 49.7915 198.489C49.7915 194.291 46.3856 190.887 42.1842 190.887C37.9828 190.887 34.5769 194.291 34.5769 198.489C34.5769 202.687 37.9828 206.09 42.1842 206.09Z" fill="#E6E6E6"/>
</svg>
