<svg width="854" height="1010" viewBox="0 0 854 1010" fill="none" xmlns="http://www.w3.org/2000/svg">
<rect x="126" width="728" height="1010" fill="#D1FFE6"/>
<path d="M671.404 250.143C692.702 250.152 701.851 280.99 722.694 285.373C732.003 287.33 741.5 283.434 751.011 283.265C760.522 283.096 771.899 290.002 769.889 299.3L588.567 296.566C607.309 294.62 624.84 286.385 638.303 273.203C648.131 263.429 657.545 250.137 671.404 250.143Z" fill="#BEE7D1"/>
<path d="M481.352 152.542C487.523 146.379 493.434 137.996 502.136 138C515.509 138.005 521.254 157.453 534.341 160.217C540.186 161.451 546.15 158.994 552.122 158.888C558.094 158.781 565.238 163.137 563.976 169L450.122 167.276C461.89 166.049 472.898 160.856 481.352 152.542Z" fill="#BEE7D1"/>
<path d="M283.708 292.604C289.554 286.838 295.154 278.997 303.399 279C316.068 279.005 321.51 297.198 333.909 299.784C339.446 300.938 345.096 298.64 350.754 298.54C356.411 298.441 363.179 302.515 361.983 308L254.122 306.387C265.271 305.239 275.699 300.381 283.708 292.604Z" fill="#BEE7D1"/>
<path d="M130.837 113.868C152.135 113.876 161.284 144.715 182.126 149.097C191.435 151.055 200.933 147.158 210.444 146.99C219.955 146.821 231.331 153.727 229.321 163.025L47.9999 160.291C66.7418 158.345 84.2725 150.11 97.736 136.927C107.563 127.154 116.977 113.862 130.837 113.868Z" fill="#BEE7D1"/>
<path d="M611.932 842.403C611.639 853.343 609.806 864.186 606.488 874.614C606.414 874.856 606.333 875.094 606.253 875.336H585.94C585.961 875.119 585.983 874.877 586.005 874.614C587.359 859.043 579.622 765.405 570.285 749.199C571.103 750.513 613.507 792.928 611.932 842.403Z" fill="#E6E6E6"/>
<path d="M610.408 874.614C610.238 874.856 610.061 875.098 609.88 875.336H594.641C594.756 875.13 594.89 874.888 595.045 874.614C597.563 870.071 605.014 856.486 611.931 842.404C619.361 827.27 626.183 811.563 625.608 805.877C625.786 807.159 630.93 846.247 610.408 874.614Z" fill="#E6E6E6"/>
<path d="M363.394 858.605C363.245 864.162 362.314 869.671 360.629 874.969C360.591 875.092 360.55 875.213 360.509 875.336H350.189C350.2 875.226 350.211 875.103 350.222 874.969C350.91 867.058 346.979 819.485 342.235 811.251C342.651 811.919 364.194 833.468 363.394 858.605Z" fill="#E6E6E6"/>
<path d="M362.62 874.969C362.534 875.092 362.444 875.215 362.352 875.336H354.609C354.668 875.231 354.736 875.109 354.815 874.969C356.094 872.661 359.88 865.759 363.394 858.604C367.168 850.916 370.635 842.935 370.343 840.047C370.433 840.698 373.046 860.557 362.62 874.969Z" fill="#E6E6E6"/>
<path d="M704.984 862.468C704.871 866.631 704.168 870.757 702.894 874.725C702.866 874.817 702.835 874.908 702.804 875H695.008C695.016 874.917 695.025 874.825 695.033 874.725C695.553 868.8 692.583 833.167 689 827C689.314 827.5 705.588 843.641 704.984 862.468Z" fill="#E6E6E6"/>
<path d="M703.975 874.73C703.91 874.82 703.843 874.911 703.775 875H698C698.044 874.923 698.094 874.832 698.153 874.73C699.107 873.029 701.931 867.944 704.552 862.673C707.367 857.008 709.953 851.128 709.735 849C709.802 849.48 711.751 864.111 703.975 874.73Z" fill="#E6E6E6"/>
<path d="M424.493 541.76L450.763 560.445L434.417 562.196L411.649 542.929L424.493 541.76Z" fill="#3F3D56"/>
<path d="M527.271 860.8L511.471 860.799L503.954 799.855L527.274 799.856L527.271 860.8Z" fill="#9F616A"/>
<path d="M531.302 855.642L500.185 855.641H500.184C494.925 855.641 489.881 857.73 486.163 861.449C482.444 865.168 480.355 870.211 480.354 875.47V876.115L531.301 876.116L531.302 855.642Z" fill="#2F2E41"/>
<path d="M537.205 643.123C537.205 643.123 544.053 650.863 532.714 681.037L534.711 846.485L497.966 845.768L489.889 765.064L475.183 647.293L537.205 643.123Z" fill="#2F2E41"/>
<path d="M573.891 617.005C576.062 616.999 578.146 616.148 579.699 614.631C581.252 613.114 582.153 611.052 582.211 608.882L583.936 543.897L554.43 487.919C553.76 486.659 552.78 485.59 551.582 484.814C550.384 484.037 549.007 483.58 547.583 483.483L525.097 482.04L527.039 613.032L573.16 616.974C573.405 616.995 573.649 617.006 573.891 617.005Z" fill="#52DC91"/>
<path d="M462.58 665.997L462.982 665.936C509.99 658.766 545.462 651.893 545.815 651.825L546.256 651.739L533.933 621.768C534.031 618.636 536.698 530.689 531.592 505.421C526.648 480.96 503.348 476.951 500.692 476.574L498.026 467.74L464.343 485.267L458.468 505.486L457.275 560.899L462.58 665.997Z" fill="#3F3D56"/>
<path d="M508.869 582.105C530.571 582.105 548.226 558.509 548.226 529.506C548.226 500.503 530.571 476.908 508.869 476.908C487.168 476.908 469.512 500.503 469.512 529.506C469.512 558.509 487.168 582.105 508.869 582.105ZM508.869 482.057C527.731 482.057 543.077 503.343 543.077 529.506C543.077 555.67 527.731 576.955 508.869 576.955C490.007 576.955 474.662 555.67 474.662 529.506C474.662 503.343 490.007 482.057 508.869 482.057Z" fill="#52DC91"/>
<path d="M442.293 551.943C443.81 551.943 445.31 552.257 446.7 552.864C448.09 553.472 449.339 554.361 450.368 555.475H506.984L527.722 559.889L524.317 586.151L450.546 570.285C449.325 571.665 447.777 572.716 446.045 573.344C444.313 573.971 442.451 574.155 440.629 573.878C438.808 573.601 437.085 572.872 435.618 571.757C434.15 570.643 432.986 569.179 432.23 567.499C431.474 565.819 431.151 563.976 431.29 562.139C431.429 560.302 432.026 558.529 433.027 556.982C434.028 555.435 435.4 554.164 437.019 553.283C438.637 552.403 440.451 551.943 442.293 551.943Z" fill="#9F616A"/>
<path d="M446.45 464.019C435.794 453.363 435.794 436.086 446.45 425.431C457.106 414.775 474.382 414.775 485.038 425.431C495.694 436.086 495.694 453.363 485.038 464.019C474.382 474.674 457.106 474.674 446.45 464.019Z" fill="#9F616A"/>
<path d="M491.407 422.911L492.729 420.249L486.073 416.942C486.073 416.942 478.731 404.994 465.444 408.352C452.157 411.709 446.179 413.719 446.179 413.719L439.54 417.059L442.872 420.375L436.895 422.384L440.888 424.368L436.241 427.039L438.743 440.73C438.743 440.73 442.897 430.346 450.885 434.314C458.872 438.283 473.481 432.263 473.481 432.263L486.174 456.827C486.174 456.827 488.793 448.216 493.461 450.512C493.461 450.512 505.388 431.518 491.407 422.911Z" fill="#2F2E41"/>
<path d="M254.317 590.894L255.484 569.021L267.254 559.458L274.073 579.712L312.21 630.577C314.014 630.866 315.696 631.666 317.059 632.881C318.422 634.096 319.409 635.676 319.902 637.434C320.395 639.193 320.374 641.055 319.842 642.802C319.309 644.549 318.288 646.107 316.898 647.291C315.508 648.475 313.808 649.237 311.999 649.485C310.19 649.734 308.347 649.459 306.689 648.693C305.032 647.927 303.628 646.702 302.645 645.163C301.661 643.625 301.139 641.837 301.14 640.011C301.14 639.882 301.154 639.757 301.159 639.629L254.317 590.894Z" fill="#FFB7B7"/>
<path d="M231.653 866.569L240.671 866.568L244.962 831.781L231.651 831.782L231.653 866.569Z" fill="#FFB7B7"/>
<path d="M229.352 875.311L258.433 875.31V874.942C258.432 871.94 257.24 869.062 255.117 866.939C252.994 864.816 250.116 863.624 247.114 863.624L229.352 863.624L229.352 875.311Z" fill="#2F2E41"/>
<path d="M189.72 866.569L198.739 866.568L203.03 831.781L189.719 831.782L189.72 866.569Z" fill="#FFB7B7"/>
<path d="M187.42 875.311L216.5 875.31V874.942C216.5 871.94 215.308 869.062 213.185 866.939C211.062 864.816 208.183 863.624 205.182 863.624L187.419 863.624L187.42 875.311Z" fill="#2F2E41"/>
<path d="M199.253 499.518C195.435 483.753 192.2 465.97 199.401 451.45C204.397 441.375 222.881 437.982 233.477 441.612C244.073 445.241 251.734 455.089 255.103 465.826C258.472 476.563 258.08 488.132 256.612 499.294C237.125 498.92 217.638 498.545 199.253 499.518Z" fill="#2F2E41"/>
<path d="M221.238 496.73C210.226 490.71 206.179 476.903 212.198 465.891C218.218 454.879 232.025 450.831 243.037 456.851C254.049 462.871 258.097 476.678 252.077 487.69C246.057 498.702 232.25 502.749 221.238 496.73Z" fill="#FFB8B8"/>
<path d="M204.358 472.109C204.286 468.285 204.983 464.485 206.409 460.935C207.834 457.385 209.958 454.158 212.656 451.446C215.353 448.733 218.568 446.59 222.109 445.145C225.651 443.699 229.447 442.98 233.272 443.031C237.097 443.081 240.872 443.9 244.374 445.438C247.877 446.977 251.034 449.204 253.659 451.986C256.283 454.769 258.322 458.051 259.653 461.637C260.984 465.223 261.581 469.04 261.408 472.862C241.958 472.903 222.508 472.944 204.358 472.109Z" fill="#2F2E41"/>
<path d="M268.629 613.697C268.629 613.697 272.327 667.407 270.32 683.791C268.313 700.176 246.463 843.414 246.463 843.414L229.981 843.385L225.088 674.587L205.598 845.025L188.553 843.253L178.884 676.534C178.884 676.534 180.401 614.117 192.724 607.858L268.629 613.697Z" fill="#2F2E41"/>
<path d="M242.776 666.939C254.882 666.935 266.813 664.046 277.579 658.511L277.815 658.391L268.705 597.941L269.296 525.897C269.312 523.919 268.935 521.959 268.185 520.129C267.435 518.299 266.328 516.637 264.929 515.239C263.53 513.841 261.867 512.736 260.036 511.989C258.206 511.241 256.245 510.865 254.267 510.883L205.383 511.332C203.219 511.351 201.082 511.816 199.105 512.698C197.128 513.579 195.353 514.858 193.892 516.454C192.43 518.051 191.313 519.931 190.609 521.978C189.906 524.025 189.631 526.194 189.802 528.352L194.376 586.108L179.248 632.986L181.877 636.481C188.966 645.938 198.16 653.613 208.731 658.9C219.301 664.186 230.957 666.939 242.776 666.939Z" fill="#3F3D56"/>
<path d="M274.208 573.037L269.085 520.768L267.439 518.425C266.311 516.82 264.878 515.454 263.221 514.405C261.564 513.356 259.716 512.645 257.783 512.312C255.85 511.979 253.871 512.031 251.958 512.465C250.046 512.899 248.238 513.706 246.638 514.841L245.227 515.842L246.62 568.813L274.208 573.037Z" fill="#3F3D56"/>
<path d="M64.3105 828.403C51.068 824.745 45.417 844.854 58.6261 848.629C71.8679 852.287 77.519 832.177 64.3105 828.403Z" fill="#3F3D56"/>
<path d="M137.733 854.285C124.49 850.627 118.839 870.737 132.048 874.512C145.29 878.17 150.941 858.06 137.733 854.285Z" fill="#3F3D56"/>
<path d="M167.448 642.193L167.244 642.135L133.134 734.74L128.637 733.476L162.991 640.207C163.066 638.77 163.629 637.401 164.589 636.328C165.549 635.255 166.846 634.543 168.267 634.309C185.325 631.612 192.239 646.754 192.239 646.754L192.171 646.855L157.298 741.532L152.801 740.268L186.648 648.376C176.344 638.185 167.448 642.193 167.448 642.193Z" fill="#3F3D56"/>
<path d="M128.356 859.495C133.223 859.452 137.949 857.857 141.846 854.942C145.743 852.027 148.608 847.943 150.022 843.286C156.532 821.978 171.892 770.924 173.927 757.069C176.577 739.029 161.645 733.899 161.313 733.789C160.911 733.654 154.908 731.974 146.599 729.648C132.475 725.696 111.131 719.722 110.347 719.369C107.04 718.22 103.531 717.765 100.04 718.035C96.5488 718.305 93.1512 719.292 90.0598 720.936C86.8737 722.612 84.0617 724.919 81.7947 727.715C79.5278 730.512 77.8532 733.741 76.8728 737.205L54.9026 815.369C53.5468 820.161 53.9269 825.277 55.9758 829.816C58.0247 834.355 61.6108 838.024 66.1014 840.177C83.0536 848.321 107.916 859.186 128.022 859.493C128.133 859.494 128.245 859.495 128.356 859.495Z" fill="#52DC91"/>
<path d="M171.076 638.99L182.12 574.476L183.353 552.703L201.208 558.551L186.149 643.028C186.757 644.672 186.901 646.452 186.566 648.172C186.23 649.893 185.428 651.488 184.247 652.783C183.067 654.079 181.552 655.024 179.87 655.517C178.188 656.01 176.403 656.03 174.71 655.577C173.016 655.123 171.481 654.213 170.27 652.945C169.06 651.677 168.221 650.101 167.846 648.389C167.471 646.677 167.574 644.894 168.143 643.237C168.713 641.579 169.728 640.11 171.076 638.99Z" fill="#FFB7B7"/>
<path d="M179.099 570.429L206.968 568.914L213.516 516.331L212.878 515.778C211.309 514.417 209.486 513.379 207.515 512.724C205.544 512.069 203.462 511.81 201.39 511.961C199.318 512.113 197.297 512.672 195.442 513.607C193.587 514.542 191.934 515.834 190.58 517.409L189.291 518.908L189.272 519.003L179.099 570.429Z" fill="#3F3D56"/>
<path d="M65.6125 827.283L94.0966 730.875L161.076 749.804L161.477 748.389L93.0976 729.064L92.8917 729.761L64.2015 826.866L65.6125 827.283Z" fill="#3F3D56"/>
<path d="M571.766 610.093L574.799 543.958L543.731 483.228L542.422 483.898L573.311 544.28L570.296 610.025L571.766 610.093Z" fill="#3F3D56"/>
<path d="M0.863525 877H796.137C796.366 877 796.585 876.895 796.747 876.707C796.909 876.52 797 876.265 797 876C797 875.735 796.909 875.48 796.747 875.293C796.585 875.105 796.366 875 796.137 875H0.863525C0.63446 875 0.414795 875.105 0.252869 875.293C0.0909424 875.48 0 875.735 0 876C0 876.265 0.0909424 876.52 0.252869 876.707C0.414795 876.895 0.63446 877 0.863525 877Z" fill="#CCCCCC"/>
<path d="M523.954 591.073L530.429 571.814L531.995 507.616L529.236 498.507C528.244 495.229 526.599 492.185 524.401 489.557C522.204 486.93 519.498 484.773 516.447 483.216C513.396 481.659 510.062 480.734 506.644 480.497C503.227 480.259 499.797 480.714 496.56 481.834C493.323 482.954 490.345 484.716 487.805 487.015C485.265 489.313 483.216 492.1 481.779 495.21C480.342 498.32 479.548 501.687 479.444 505.111C479.34 508.535 479.928 511.945 481.173 515.136L495.96 553.026L495.208 554.484L463.174 554.225L451.795 574.707L523.954 591.073Z" fill="#3F3D56"/>
</svg>
