<svg width="22" height="22" viewBox="0 0 22 22" fill="none" xmlns="http://www.w3.org/2000/svg">
<path d="M4.87566 13.2951L4.10988 16.1539L1.31093 16.2131C0.474461 14.6616 0 12.8865 0 11.0002C0 9.17614 0.443609 7.45601 1.22994 5.94141H1.23054L3.72238 6.39825L4.81396 8.87514C4.5855 9.5412 4.46097 10.2562 4.46097 11.0002C4.46106 11.8077 4.60732 12.5813 4.87566 13.2951Z" fill="#FBBB00"/>
<path d="M21.8077 8.94482C21.934 9.61024 21.9999 10.2974 21.9999 10.9998C21.9999 11.7873 21.9171 12.5555 21.7593 13.2965C21.2239 15.818 19.8247 18.0198 17.8864 19.578L17.8858 19.5774L14.7472 19.4172L14.303 16.6442C15.5891 15.89 16.5942 14.7096 17.1237 13.2965H11.2417V8.94482H17.2095H21.8077Z" fill="#518EF8"/>
<path d="M17.886 19.5776L17.8866 19.5782C16.0015 21.0934 13.6068 22 11.0001 22C6.81104 22 3.16896 19.6586 1.31104 16.2129L4.87577 13.2949C5.80471 15.7741 8.19631 17.539 11.0001 17.539C12.2052 17.539 13.3343 17.2132 14.3031 16.6445L17.886 19.5776Z" fill="#28B446"/>
<path d="M18.0213 2.53241L14.4578 5.44981C13.4551 4.82307 12.2699 4.46102 11 4.46102C8.13278 4.46102 5.69645 6.30683 4.81405 8.87494L1.23058 5.9412H1.22998C3.06071 2.41154 6.74872 0 11 0C13.669 0 16.1162 0.950727 18.0213 2.53241Z" fill="#F14336"/>
</svg>
