<svg width="21" height="19" viewBox="0 0 21 19" fill="none" xmlns="http://www.w3.org/2000/svg">
<path d="M0.933625 10.8592L2.74925 12.1516C3.6785 12.8122 4.77663 13.1491 5.87475 13.1491C6.65613 13.1491 7.43837 12.9784 8.16025 12.6328L19.4941 7.64707C20.7944 7.02582 21.3605 5.45607 20.755 4.14707C20.1477 2.83719 18.5894 2.26407 17.276 2.86519L14.5259 4.09194L8.73425 0.516693C7.9625 -0.0573069 6.9405 -0.160557 6.06375 0.244568L5.38037 0.564818C4.84575 0.815943 4.4765 1.31469 4.3925 1.89919C4.3085 2.48457 4.522 3.06732 4.96475 3.45932L8.64325 6.71432L5.50113 8.11607L2.82625 7.13432C1.96525 6.82019 1.00275 7.09844 0.433125 7.82644C0.090125 8.26482 -0.053375 8.81694 0.028875 9.38044C0.1155 9.97282 0.4445 10.5109 0.93275 10.8574L0.933625 10.8592ZM6.125 2.14944L6.804 1.83094C7.0945 1.69619 7.43488 1.73207 7.75338 1.96307L12.593 4.95382L10.4002 5.93207L6.125 2.14944ZM1.81213 8.90619C1.89788 8.79682 2.00813 8.75832 2.10437 8.75832C2.14812 8.75832 5.23163 9.88269 5.23163 9.88269C5.446 9.96144 5.68225 9.95357 5.88963 9.86082L17.9935 4.46119L18.0049 4.45594C18.4432 4.25382 18.9639 4.44544 19.1669 4.88207C19.3716 5.32569 19.1809 5.85682 18.7644 6.05632L7.4305 11.0421C6.24312 11.6082 4.837 11.4883 3.76338 10.7253L1.94775 9.43382C1.848 9.36294 1.77887 9.24919 1.76137 9.12932C1.74825 9.04007 1.76575 8.96569 1.81213 8.90619ZM21 17.4996C21 17.9834 20.608 18.3746 20.125 18.3746H0.875C0.392 18.3746 0 17.9834 0 17.4996C0 17.0157 0.392 16.6246 0.875 16.6246H20.125C20.608 16.6246 21 17.0157 21 17.4996Z" fill="black"/>
</svg>
