<svg width="22" height="22" viewBox="0 0 22 22" fill="none" xmlns="http://www.w3.org/2000/svg">
<path fill-rule="evenodd" clip-rule="evenodd" d="M22 11C22 17.0751 17.0751 22 11 22C4.92487 22 0 17.0751 0 11C0 4.92487 4.92487 0 11 0C17.0751 0 22 4.92487 22 11ZM14.264 11.6138L14.4852 9.6975C14.4918 9.64712 14.4876 9.59592 14.4729 9.54728C14.4582 9.49864 14.4334 9.45366 14.4001 9.41529C14.3668 9.37692 14.3258 9.34603 14.2797 9.32465C14.2336 9.30327 14.1835 9.29189 14.1327 9.29125H11.899V7.69C11.899 6.9675 12.0965 6.4675 13.1127 6.4675H14.0527C14.1001 6.46701 14.1469 6.45717 14.1905 6.43855C14.2341 6.41992 14.2735 6.39288 14.3066 6.35897C14.3397 6.32506 14.3658 6.28495 14.3834 6.24094C14.4009 6.19693 14.4096 6.14988 14.409 6.1025V4.49C14.4096 4.44262 14.4009 4.39557 14.3834 4.35156C14.3658 4.30755 14.3397 4.26744 14.3066 4.23353C14.2735 4.19962 14.2341 4.17258 14.1905 4.15395C14.1469 4.13533 14.1001 4.12549 14.0527 4.125H12.5202C10.6502 4.125 9.37523 5.29375 9.37523 7.44125V9.29125H7.86773C7.82045 9.2919 7.77377 9.30186 7.73034 9.32056C7.68691 9.33925 7.64759 9.36632 7.61463 9.40022C7.58166 9.43411 7.55569 9.47417 7.53821 9.5181C7.52073 9.56203 7.51207 9.60897 7.51273 9.65625L7.52023 11.5725C7.51974 11.6196 7.52853 11.6664 7.5461 11.7101C7.56367 11.7538 7.58968 11.7936 7.62265 11.8273C7.65561 11.8609 7.69489 11.8878 7.73823 11.9063C7.78156 11.9247 7.82812 11.9345 7.87523 11.935H9.37523V17.615C9.37388 17.6487 9.37935 17.6823 9.39131 17.7137C9.40327 17.7452 9.42147 17.774 9.44482 17.7983C9.46817 17.8226 9.49619 17.8419 9.52719 17.8551C9.55819 17.8682 9.59154 17.875 9.62523 17.875H11.6515C11.7188 17.8734 11.7827 17.8453 11.8295 17.7969C11.8763 17.7485 11.9022 17.6836 11.9015 17.6162L11.9115 11.935H13.9115C13.9994 11.9339 14.0839 11.9007 14.1488 11.8414C14.2138 11.7822 14.2548 11.7012 14.264 11.6138Z" fill="url(#paint0_linear_97_360)"/>
<defs>
<linearGradient id="paint0_linear_97_360" x1="11" y1="0" x2="11" y2="22" gradientUnits="userSpaceOnUse">
<stop stop-color="#0C5AF0"/>
<stop offset="1" stop-color="#0F57C4"/>
</linearGradient>
</defs>
</svg>
