<svg width="9" height="16" viewBox="0 0 9 16" fill="none" xmlns="http://www.w3.org/2000/svg">
<path d="M2.39215 8.99049C2.33234 8.99049 1.01666 8.99049 0.418626 8.99049C0.0996729 8.99049 0 8.87088 0 8.57186C0 7.77448 0 6.95716 0 6.15978C0 5.84083 0.119607 5.74115 0.418626 5.74115H2.39215C2.39215 5.68135 2.39215 4.52515 2.39215 3.98691C2.39215 3.18953 2.53169 2.43202 2.93038 1.73431C3.34901 1.01666 3.94704 0.538233 4.70456 0.259149C5.20292 0.0797381 5.70129 0 6.23952 0H8.19311C8.47219 0 8.5918 0.119607 8.5918 0.398691V2.67123C8.5918 2.95032 8.47219 3.06992 8.19311 3.06992C7.65487 3.06992 7.11664 3.06992 6.57841 3.08986C6.04017 3.08986 5.76109 3.34901 5.76109 3.90717C5.74115 4.50521 5.76109 5.08331 5.76109 5.70129H8.0735C8.39245 5.70129 8.51206 5.82089 8.51206 6.13985V8.55193C8.51206 8.87088 8.41239 8.97055 8.0735 8.97055C7.35585 8.97055 5.82089 8.97055 5.76109 8.97055V15.4692C5.76109 15.8081 5.66142 15.9277 5.30259 15.9277C4.46534 15.9277 3.64803 15.9277 2.81077 15.9277C2.51176 15.9277 2.39215 15.8081 2.39215 15.5091C2.39215 13.416 2.39215 9.05029 2.39215 8.99049Z" fill="#4B4B4B"/>
</svg>
