<svg width="16" height="16" viewBox="0 0 16 16" fill="none" xmlns="http://www.w3.org/2000/svg">
<path fill-rule="evenodd" clip-rule="evenodd" d="M15.9593 4.70406C15.9218 3.85391 15.7843 3.26945 15.5874 2.763C15.3842 2.22542 15.0715 1.74412 14.662 1.34402C14.2618 0.937686 13.7772 0.62195 13.2458 0.421959C12.7363 0.22502 12.1548 0.0875418 11.3044 0.0500587C10.4478 0.00940127 10.1758 0 8.00311 0C5.83039 0 5.55844 0.00940127 4.70496 0.0468843C3.85465 0.0843673 3.27007 0.221968 2.76365 0.418784C2.22584 0.62195 1.74445 0.934512 1.34427 1.34402C0.937865 1.74412 0.62219 2.22859 0.422039 2.75995C0.225063 3.26945 0.0875585 3.85074 0.0500683 4.70088C0.00940306 5.55738 0 5.82928 0 8.00159C0 10.1739 0.00940306 10.4458 0.0468932 11.2991C0.0843834 12.1493 0.22201 12.7337 0.418986 13.2402C0.62219 13.7778 0.937865 14.2591 1.34427 14.6592C1.74445 15.0655 2.22902 15.3812 2.76047 15.5812C3.27007 15.7782 3.85147 15.9156 4.7019 15.9531C5.55526 15.9907 5.82734 16 8.00006 16C10.1728 16 10.4447 15.9907 11.2982 15.9531C12.1485 15.9156 12.7331 15.7782 13.2395 15.5812C14.315 15.1655 15.1653 14.3153 15.5811 13.2402C15.778 12.7307 15.9156 12.1493 15.9531 11.2991C15.9906 10.4458 16 10.1739 16 8.00159C16 5.82928 15.9968 5.55738 15.9593 4.70406ZM14.5182 11.2366C14.4838 12.018 14.3525 12.44 14.2431 12.7213C13.9742 13.4183 13.4209 13.9715 12.7237 14.2404C12.4423 14.3498 12.0172 14.481 11.2387 14.5153C10.3947 14.5529 10.1415 14.5622 8.00629 14.5622C5.87106 14.5622 5.61473 14.5529 4.77371 14.5153C3.99215 14.481 3.57011 14.3498 3.28876 14.2404C2.94182 14.1122 2.62602 13.909 2.3697 13.6433C2.10397 13.3839 1.90076 13.0713 1.77254 12.7244C1.66312 12.4431 1.53185 12.018 1.49753 11.2398C1.45992 10.3959 1.45064 10.1426 1.45064 8.00781C1.45064 5.87299 1.45992 5.61671 1.49753 4.77597C1.53185 3.99457 1.66312 3.57261 1.77254 3.2913C1.90076 2.94431 2.10397 2.6287 2.37287 2.3723C2.63225 2.10662 2.94487 1.90345 3.29193 1.77538C3.57329 1.66598 3.9985 1.53473 4.77688 1.5003C5.62096 1.46281 5.87423 1.45341 8.00934 1.45341C10.1477 1.45341 10.4009 1.46281 11.2419 1.5003C12.0235 1.53473 12.4455 1.66598 12.7269 1.77538C13.0738 1.90345 13.3896 2.10662 13.6459 2.3723C13.9117 2.63175 14.1149 2.94431 14.2431 3.2913C14.3525 3.57261 14.4838 3.99762 14.5182 4.77597C14.5557 5.61989 14.5651 5.87299 14.5651 8.00781C14.5651 10.1426 14.5557 10.3927 14.5182 11.2366ZM8.20513 3.69231C5.94021 3.69231 4.10256 5.52983 4.10256 7.79487C4.10256 10.0599 5.94021 11.8974 8.20513 11.8974C10.4702 11.8974 12.3077 10.0599 12.3077 7.79487C12.3077 5.52983 10.4702 3.69231 8.20513 3.69231ZM8.20513 10.4561C6.73577 10.4561 5.5439 9.26436 5.5439 7.79487C5.5439 6.32539 6.73577 5.13364 8.20513 5.13364C9.67461 5.13364 10.8664 6.32539 10.8664 7.79487C10.8664 9.26436 9.67461 10.4561 8.20513 10.4561ZM12.3076 4.51282C12.7608 4.51282 13.1282 4.14542 13.1282 3.69231C13.1282 3.23909 12.7608 2.87179 12.3076 2.87179C11.8546 2.87179 11.4872 3.23909 11.4872 3.69231C11.4872 4.14542 11.8546 4.51282 12.3076 4.51282Z" fill="#4B4B4B"/>
</svg>
