<svg width="17" height="16" viewBox="0 0 17 16" fill="none" xmlns="http://www.w3.org/2000/svg">
<path fill-rule="evenodd" clip-rule="evenodd" d="M2.12421 0C0.95291 0 0 0.951875 0 2.12188C0 3.2924 0.95291 4.24464 2.12421 4.24464C3.29458 4.24464 4.24671 3.29235 4.24671 2.12188C4.24676 0.951875 3.29458 0 2.12421 0ZM3.73252 5.14106H0.513408C0.370539 5.14106 0.254774 5.25688 0.254774 5.3997V15.7413C0.254774 15.8842 0.370539 15.9999 0.513408 15.9999H3.73252C3.87539 15.9999 3.99115 15.8842 3.99115 15.7413V5.3997C3.99115 5.25688 3.87539 5.14106 3.73252 5.14106ZM9.0921 6.07137C9.6718 5.43984 10.6276 4.88404 11.9205 4.88404C15.5462 4.88404 16.0351 7.50498 16.0351 10.0688V15.7414C16.0351 15.8842 15.9193 16 15.7765 16H12.5632C12.4203 16 12.3046 15.8842 12.3046 15.7414V10.7133C12.3046 9.30553 12.2006 8.22868 10.8916 8.22868C9.68964 8.22868 9.22131 8.90041 9.22131 10.6246V15.7413C9.22131 15.8842 9.10555 15.9999 8.96268 15.9999H5.7506C5.60773 15.9999 5.49197 15.8842 5.49197 15.7413V5.3997C5.49197 5.25688 5.60773 5.14107 5.7506 5.14107H8.83346C8.97633 5.14107 9.0921 5.25688 9.0921 5.3997V6.07137Z" fill="#4B4B4B"/>
</svg>
