<svg width="15" height="19" viewBox="0 0 15 19" fill="none" xmlns="http://www.w3.org/2000/svg">
<path d="M2.07998 19C1.50799 19 1.01833 18.8017 0.611006 18.405C0.203669 18.0084 0 17.5315 0 16.9745V8.19913C0 7.64213 0.203669 7.1653 0.611006 6.76864C1.01833 6.37199 1.50799 6.17366 2.07998 6.17366H2.84667V4.54739C2.84667 3.2874 3.29967 2.21451 4.20566 1.32871C5.11164 0.442902 6.20975 0 7.5 0C8.79025 0 9.88836 0.442902 10.7943 1.32871C11.7003 2.21451 12.1533 3.2874 12.1533 4.54739V6.17366H12.92C13.492 6.17366 13.9817 6.37199 14.389 6.76864C14.7963 7.1653 15 7.64213 15 8.19913V16.9745C15 17.5315 14.7963 18.0084 14.389 18.405C13.9817 18.8017 13.492 19 12.92 19H2.07998ZM2.07998 16.9745H12.92V8.19913H2.07998V16.9745ZM7.5 14.3675C8.00285 14.3675 8.43332 14.1931 8.79141 13.8444C9.14949 13.4957 9.32854 13.0765 9.32854 12.5868C9.32854 12.0972 9.14949 11.678 8.79141 11.3293C8.43332 10.9806 8.00285 10.8062 7.5 10.8062C6.99715 10.8062 6.56668 10.9806 6.2086 11.3293C5.85051 11.678 5.67146 12.0972 5.67146 12.5868C5.67146 13.0765 5.85051 13.4957 6.2086 13.8444C6.56668 14.1931 6.99715 14.3675 7.5 14.3675ZM4.92663 6.17366H10.0734V4.54739C10.0734 3.84686 9.82402 3.25141 9.32532 2.76104C8.8266 2.27067 8.21816 2.02549 7.5 2.02549C6.78184 2.02549 6.1734 2.27067 5.67469 2.76104C5.17598 3.25141 4.92663 3.84686 4.92663 4.54739V6.17366Z" fill="black"/>
</svg>
