<svg width="24" height="19" viewBox="0 0 24 19" fill="none" xmlns="http://www.w3.org/2000/svg">
<path d="M18.308 8.24448C17.9644 8.24448 17.6743 8.12488 17.4376 7.88569C17.201 7.64649 17.0827 7.35321 17.0827 7.00587C17.0827 6.65853 17.201 6.36639 17.4376 6.12944C17.6743 5.89249 17.9644 5.77402 18.308 5.77402H22.7814C23.1267 5.77402 23.4161 5.89207 23.6497 6.12817C23.8832 6.36429 24 6.65686 24 7.00587C24 7.35321 23.8832 7.64649 23.6497 7.88569C23.4161 8.12488 23.1267 8.24448 22.7814 8.24448H18.308ZM9.17405 9.49662C7.87701 9.49662 6.76931 9.03245 5.85094 8.1041C4.93256 7.17576 4.47337 6.05603 4.47337 4.74492C4.47337 3.43381 4.93256 2.31522 5.85094 1.38913C6.76931 0.463043 7.87701 0 9.17405 0C10.4711 0 11.5788 0.463043 12.4972 1.38913C13.4156 2.31522 13.8747 3.43381 13.8747 4.74492C13.8747 6.05603 13.4156 7.17576 12.4972 8.1041C11.5788 9.03245 10.4711 9.49662 9.17405 9.49662ZM1.27211 19C0.91514 19 0.613877 18.8759 0.368326 18.6277C0.122775 18.3795 0 18.0749 0 17.7141V15.5914C0 14.9089 0.174666 14.2815 0.523999 13.7094C0.873351 13.1373 1.33747 12.7007 1.91636 12.3996C3.08537 11.811 4.27514 11.3685 5.48567 11.0719C6.69622 10.7754 7.92568 10.6271 9.17405 10.6271C10.431 10.6271 11.6648 10.7742 12.8755 11.0685C14.0863 11.3628 15.2717 11.8043 16.4317 12.3928C17.0106 12.6933 17.4748 13.129 17.8241 13.6998C18.1735 14.2707 18.3481 14.9012 18.3481 15.5914V17.7141C18.3481 18.0749 18.2253 18.3795 17.9798 18.6277C17.7342 18.8759 17.433 19 17.076 19H1.27211ZM2.54423 16.4282H15.8039V15.6252C15.8039 15.4223 15.7526 15.2378 15.6501 15.0718C15.5476 14.9059 15.4125 14.7767 15.2447 14.6845C14.265 14.1938 13.2692 13.8236 12.2574 13.5737C11.2456 13.3239 10.2178 13.1989 9.17405 13.1989C8.13919 13.1989 7.11141 13.3239 6.09072 13.5737C5.07003 13.8236 4.07425 14.1938 3.1034 14.6845C2.93565 14.7767 2.80052 14.9059 2.698 15.0718C2.59549 15.2378 2.54423 15.4223 2.54423 15.6252V16.4282ZM9.17382 6.92476C9.76679 6.92476 10.2745 6.71135 10.6969 6.28452C11.1193 5.85767 11.3305 5.34455 11.3305 4.74517C11.3305 4.14578 11.1194 3.6337 10.6971 3.20894C10.2749 2.7842 9.76726 2.57183 9.1743 2.57183C8.58133 2.57183 8.07364 2.78462 7.65123 3.21019C7.22881 3.63573 7.0176 4.14731 7.0176 4.74492C7.0176 5.34437 7.22873 5.85754 7.651 6.28443C8.07325 6.71132 8.58086 6.92476 9.17382 6.92476Z" fill="black"/>
</svg>
