<svg width="14" height="21" viewBox="0 0 14 21" fill="none" xmlns="http://www.w3.org/2000/svg">
<path d="M6.8401 14.4849C8.3717 13.2377 9.53125 12.0365 10.3188 10.8812C11.1063 9.72604 11.5 8.6437 11.5 7.63422C11.5 6.76453 11.3411 6.02283 11.0232 5.40911C10.7053 4.7954 10.3125 4.29861 9.84479 3.91874C9.37708 3.53889 8.87207 3.26302 8.32976 3.09115C7.78744 2.91927 7.29161 2.83333 6.84226 2.83333C6.39291 2.83333 5.89636 2.91927 5.3526 3.09115C4.80886 3.26302 4.30313 3.53889 3.83542 3.91874C3.3677 4.29861 2.97491 4.79561 2.65703 5.40974C2.33915 6.02389 2.18021 6.7663 2.18021 7.63698C2.18021 8.64462 2.57396 9.72604 3.36145 10.8812C4.14896 12.0365 5.30851 13.2377 6.8401 14.4849ZM6.8401 17.237C4.54601 15.5415 2.83247 13.8987 1.69948 12.3085C0.566495 10.7183 0 9.16062 0 7.63537C0 6.48331 0.207639 5.47147 0.622917 4.59985C1.03821 3.72823 1.57157 2.99916 2.223 2.41265C2.87443 1.82615 3.60728 1.38626 4.42156 1.093C5.23584 0.799747 6.04198 0.653122 6.83998 0.653122C7.63799 0.653122 8.44415 0.799747 9.25846 1.093C10.0728 1.38626 10.8057 1.82615 11.4571 2.41265C12.1086 2.99916 12.642 3.72823 13.0573 4.59985C13.4726 5.47147 13.6802 6.48331 13.6802 7.63537C13.6802 9.16062 13.1137 10.7183 11.9807 12.3085C10.8477 13.8987 9.1342 15.5415 6.8401 17.237ZM6.84219 9.54166C7.40607 9.54166 7.88811 9.34089 8.28829 8.93933C8.68846 8.53777 8.88854 8.05504 8.88854 7.49114C8.88854 6.92726 8.68816 6.44522 8.2874 6.04504C7.88663 5.64487 7.40486 5.44479 6.84209 5.44479C6.27931 5.44479 5.79688 5.64517 5.39479 6.04593C4.99271 6.4467 4.79167 6.92847 4.79167 7.49124C4.79167 8.05402 4.99245 8.53645 5.394 8.93854C5.79556 9.34062 6.27829 9.54166 6.84219 9.54166ZM0 20.3469V18.1667H13.6802V20.3469H0Z" fill="#1C1B1F"/>
</svg>
