<svg width="16" height="19" viewBox="0 0 16 19" fill="none" xmlns="http://www.w3.org/2000/svg">
<path d="M14.2222 19H1.77778C1.28889 19 0.870222 18.823 0.521778 18.4689C0.173926 18.1142 0 17.6881 0 17.1905V6.33333C0 5.83571 0.173926 5.40987 0.521778 5.05581C0.870222 4.70114 1.28889 4.52381 1.77778 4.52381H3.55556C3.55556 3.27222 3.98904 2.20521 4.856 1.32276C5.72237 0.440921 6.77037 0 8 0C9.22963 0 10.2779 0.440921 11.1449 1.32276C12.0113 2.20521 12.4444 3.27222 12.4444 4.52381H14.2222C14.7111 4.52381 15.1298 4.70114 15.4782 5.05581C15.8261 5.40987 16 5.83571 16 6.33333V17.1905C16 17.6881 15.8261 18.1142 15.4782 18.4689C15.1298 18.823 14.7111 19 14.2222 19ZM5.33333 4.52381H10.6667C10.6667 3.76984 10.4074 3.12897 9.88889 2.60119C9.37037 2.07341 8.74074 1.80952 8 1.80952C7.25926 1.80952 6.62963 2.07341 6.11111 2.60119C5.59259 3.12897 5.33333 3.76984 5.33333 4.52381ZM14.2222 17.1905V6.33333H1.77778V17.1905H14.2222ZM8 11.7619C9.0963 11.7619 10.0889 11.3925 10.9778 10.6536C11.8667 9.91468 12.3037 9.08532 12.2889 8.16548C12.2889 7.90913 12.2074 7.69048 12.0444 7.50952C11.8815 7.32857 11.6741 7.2381 11.4222 7.2381C11.2148 7.2381 11.0296 7.30595 10.8667 7.44167C10.7037 7.57738 10.5852 7.78095 10.5111 8.05238C10.3481 8.6254 10.0296 9.08532 9.55556 9.43214C9.08148 9.77897 8.56296 9.95238 8 9.95238C7.43704 9.95238 6.91496 9.77897 6.43378 9.43214C5.952 9.08532 5.63704 8.6254 5.48889 8.05238C5.41481 7.76587 5.3037 7.55838 5.15556 7.4299C5.00741 7.30203 4.82963 7.2381 4.62222 7.2381C4.37037 7.2381 4.15941 7.32857 3.98933 7.50952C3.81867 7.69048 3.73333 7.90913 3.73333 8.16548C3.73333 9.08532 4.17037 9.91468 5.04444 10.6536C5.91852 11.3925 6.9037 11.7619 8 11.7619Z" fill="#1C1B1F"/>
</svg>
