<svg width="19" height="19" viewBox="0 0 19 19" fill="none" xmlns="http://www.w3.org/2000/svg">
<path d="M7.0959 16.4684C6.80916 15.9637 6.56475 15.4369 6.36268 14.8878C6.16062 14.3388 5.98976 13.775 5.8501 13.1965H3.13681C3.5757 13.9649 4.12988 14.6335 4.79934 15.2021C5.46881 15.7707 6.23433 16.1928 7.0959 16.4684ZM2.35098 11.3455H5.47767C5.43112 11.0351 5.3962 10.7314 5.37292 10.4344C5.34965 10.1373 5.33801 9.82588 5.33801 9.5C5.33801 9.17783 5.34965 8.8673 5.37292 8.56841C5.3962 8.26952 5.43112 7.9649 5.47767 7.65454H2.35098C2.27339 7.96119 2.2152 8.26489 2.17641 8.56564C2.13761 8.86638 2.11822 9.17783 2.11822 9.5C2.11822 9.82588 2.13761 10.1383 2.17641 10.4371C2.2152 10.736 2.27339 11.0388 2.35098 11.3455ZM3.13681 5.80911H5.8501C5.98976 5.23055 6.16062 4.66583 6.36268 4.11495C6.56475 3.56406 6.80916 3.03629 7.0959 2.53161C6.23433 2.80723 5.46881 3.23026 4.79934 3.80071C4.12988 4.37117 3.5757 5.04063 3.13681 5.80911ZM7.7588 5.80911H11.2356C11.0494 5.13374 10.8089 4.49438 10.5141 3.89105C10.2192 3.2877 9.87749 2.71041 9.48887 2.15918C9.10024 2.71041 8.76129 3.2877 8.47202 3.89105C8.18276 4.49438 7.94501 5.13374 7.7588 5.80911ZM13.1443 5.80911H15.8576C15.4187 5.04063 14.8627 4.37117 14.1895 3.80071C13.5163 3.23026 12.749 2.80723 11.8874 2.53161C12.1741 3.03629 12.4204 3.56406 12.6262 4.11495C12.832 4.66583 13.0047 5.23055 13.1443 5.80911ZM9.5 19C8.20156 19 6.9748 18.75 5.81972 18.2501C4.66465 17.7501 3.6559 17.0689 2.79348 16.2065C1.93105 15.3441 1.24987 14.3354 0.749933 13.1803C0.249978 12.0252 0 10.7984 0 9.5C0 8.18975 0.249978 6.96004 0.749933 5.81088C1.24987 4.6617 1.93105 3.6559 2.79348 2.79348C3.6559 1.93105 4.66465 1.24987 5.81972 0.749933C6.9748 0.249978 8.20156 0 9.5 0C10.8103 0 12.04 0.249978 13.1891 0.749933C14.3383 1.24987 15.3441 1.93105 16.2065 2.79348C17.0689 3.6559 17.7501 4.6617 18.2501 5.81088C18.75 6.96004 19 8.18975 19 9.5C19 9.63662 18.997 9.77046 18.9911 9.90152C18.9852 10.0326 18.9764 10.1664 18.9646 10.3031H16.8175C16.8411 10.1664 16.8559 10.0355 16.8618 9.91037C16.8677 9.78522 16.8707 9.64843 16.8707 9.5C16.8707 9.17783 16.8513 8.86638 16.8125 8.56564C16.7737 8.26489 16.7155 7.96119 16.6379 7.65454H13.5168C13.5596 7.9649 13.5917 8.26952 13.6132 8.56841C13.6346 8.8673 13.6453 9.17783 13.6453 9.5V9.91037C13.6453 10.0355 13.6394 10.1664 13.6276 10.3031H11.7654C11.7773 10.1701 11.7832 10.0402 11.7832 9.91316V9.5C11.7832 9.17783 11.7734 8.8673 11.7538 8.56841C11.7342 8.26952 11.7012 7.9649 11.6546 7.65454H7.33982C7.29326 7.9649 7.25835 8.26952 7.23507 8.56841C7.21179 8.8673 7.20016 9.17783 7.20016 9.5C7.20016 9.82588 7.21179 10.1373 7.23507 10.4344C7.25835 10.7314 7.29326 11.0351 7.33982 11.3455H10.3031V13.1965H7.7588C7.94501 13.8718 8.18276 14.5103 8.47202 15.1117C8.76129 15.7132 9.10024 16.2896 9.48887 16.8408C9.6373 16.6222 9.7789 16.4025 9.91368 16.1817C10.0484 15.9609 10.1782 15.7353 10.3031 15.5049V18.959C10.1664 18.9708 10.0355 18.9806 9.91037 18.9884C9.78522 18.9961 9.64843 19 9.5 19ZM14.2834 15.7939V16.6617C14.2834 16.9478 14.184 17.1893 13.9851 17.3863C13.7862 17.5833 13.5326 17.6818 13.2243 17.6818C12.9271 17.6818 12.6763 17.5796 12.4718 17.3752C12.2674 17.1707 12.1652 16.9199 12.1652 16.6227V13.2243C12.1652 12.9271 12.2674 12.6763 12.4718 12.4718C12.6763 12.2674 12.9271 12.1652 13.2243 12.1652H16.6227C16.9199 12.1652 17.1707 12.2693 17.3752 12.4774C17.5796 12.6856 17.6818 12.9456 17.6818 13.2577C17.6818 13.5475 17.5833 13.7909 17.3863 13.9879C17.1893 14.1849 16.9459 14.2834 16.6561 14.2834H15.7706L17.6428 16.1612C17.8395 16.3579 17.9388 16.601 17.9406 16.8904C17.9425 17.1798 17.8451 17.4307 17.6484 17.6428C17.4362 17.855 17.1845 17.9621 16.8932 17.9639C16.6019 17.9658 16.3501 17.8606 16.1379 17.6484L14.2834 15.7939Z" fill="#1C1B1F"/>
</svg>
