<svg width="19" height="16" viewBox="0 0 19 16" fill="none" xmlns="http://www.w3.org/2000/svg">
<path d="M18.3113 2.73872C18.2026 2.56184 18.0036 2.46158 17.7964 2.47954L16.8793 2.55943L17.756 0.792271C17.8604 0.581798 17.8191 0.328217 17.6534 0.161642C17.4877 -0.00493336 17.2344 -0.0473944 17.0234 0.0559202L14.7032 1.1922C13.2698 0.435447 11.4789 0.660074 10.2466 1.78263C9.21813 2.71951 8.67753 4.16027 8.77833 5.59705C6.09024 5.32763 3.81488 3.78901 2.46941 1.30292C2.38015 1.13799 2.21278 1.03012 2.02573 1.01686C1.83832 1.00382 1.65777 1.08688 1.54619 1.23764C0.7117 2.36498 0.653146 3.91068 1.30734 5.18232C1.12701 5.13677 0.935106 5.07512 0.722298 5.00403C0.539988 4.94307 0.338999 4.98212 0.192684 5.10684C0.0463697 5.23157 -0.0239676 5.42379 0.0073214 5.6135C0.266183 7.18291 1.18136 8.38906 2.62704 9.10299C2.43881 9.16855 2.24673 9.22179 2.05141 9.26249C1.85736 9.30294 1.70023 9.44491 1.64042 9.6339C1.58061 9.82285 1.62738 10.0294 1.76281 10.1741C2.80389 11.287 4.30778 11.8347 5.37598 12.0974C4.16143 13.0486 2.85034 13.2077 0.9452 13.1423C0.724668 13.1356 0.521488 13.2599 0.42877 13.4598C0.336089 13.6597 0.372048 13.8957 0.520159 14.059C1.31435 14.9344 4.2078 15.9215 7.24948 15.9955C7.36978 15.9984 7.4925 16 7.6178 16C9.75346 16 12.576 15.5422 14.6019 13.5162C16.1354 11.9828 17.0945 10.2175 17.4526 8.26954C17.7419 6.69622 17.5591 5.43633 17.4712 4.83081C17.4648 4.7863 17.4579 4.73906 17.4523 4.69775L18.3101 3.31507C18.4196 3.13869 18.42 2.91561 18.3113 2.73872Z" fill="#4B4B4B"/>
</svg>
